<svg xmlns="http://www.w3.org/2000/svg" width="122" height="283">
<rect width="100%" height="100%" fill="#f8f6f0"/>
<g stroke="#2d5016" stroke-width="0.8" stroke-linecap="round">
<line x1="66.3" y1="263.0" x2="66.3" y2="260.0"/>
<line x1="66.3" y1="260.0" x2="67.6" y2="257.3"/>
<line x1="66.3" y1="260.0" x2="66.3" y2="257.0"/>
<line x1="66.3" y1="257.0" x2="65.0" y2="254.3"/>
<line x1="66.3" y1="257.0" x2="66.3" y2="254.0"/>
<line x1="66.3" y1="254.0" x2="67.6" y2="251.3"/>
<line x1="67.6" y1="251.3" x2="69.9" y2="249.4"/>
<line x1="67.6" y1="251.3" x2="68.9" y2="248.6"/>
<line x1="68.9" y1="248.6" x2="68.9" y2="245.6"/>
<line x1="68.9" y1="248.6" x2="70.2" y2="245.9"/>
<line x1="66.3" y1="254.0" x2="66.3" y2="251.0"/>
<line x1="66.3" y1="251.0" x2="67.6" y2="248.3"/>
<line x1="66.3" y1="251.0" x2="66.3" y2="248.0"/>
<line x1="66.3" y1="248.0" x2="65.0" y2="245.3"/>
<line x1="66.3" y1="248.0" x2="66.3" y2="245.0"/>
<line x1="66.3" y1="245.0" x2="65.0" y2="242.3"/>
<line x1="65.0" y1="242.3" x2="65.0" y2="239.3"/>
<line x1="65.0" y1="242.3" x2="63.7" y2="239.6"/>
<line x1="63.7" y1="239.6" x2="61.3" y2="237.7"/>
<line x1="63.7" y1="239.6" x2="62.4" y2="236.9"/>
<line x1="66.3" y1="245.0" x2="66.3" y2="242.0"/>
<line x1="66.3" y1="242.0" x2="67.6" y2="239.3"/>
<line x1="66.3" y1="242.0" x2="66.3" y2="239.0"/>
<line x1="66.3" y1="239.0" x2="65.0" y2="236.3"/>
<line x1="66.3" y1="239.0" x2="66.3" y2="236.0"/>
<line x1="66.3" y1="236.0" x2="67.6" y2="233.3"/>
<line x1="67.6" y1="233.3" x2="69.9" y2="231.4"/>
<line x1="67.6" y1="233.3" x2="68.9" y2="230.6"/>
<line x1="68.9" y1="230.6" x2="68.9" y2="227.6"/>
<line x1="68.9" y1="230.6" x2="70.2" y2="227.9"/>
<line x1="70.2" y1="227.9" x2="72.5" y2="226.0"/>
<line x1="72.5" y1="226.0" x2="75.4" y2="225.3"/>
<line x1="72.5" y1="226.0" x2="74.9" y2="224.1"/>
<line x1="74.9" y1="224.1" x2="76.2" y2="221.4"/>
<line x1="74.9" y1="224.1" x2="77.2" y2="222.3"/>
<line x1="70.2" y1="227.9" x2="71.5" y2="225.2"/>
<line x1="71.5" y1="225.2" x2="73.8" y2="223.3"/>
<line x1="71.5" y1="225.2" x2="72.8" y2="222.5"/>
<line x1="72.8" y1="222.5" x2="72.8" y2="219.5"/>
<line x1="72.8" y1="222.5" x2="74.1" y2="219.8"/>
<line x1="74.1" y1="219.8" x2="74.1" y2="216.8"/>
<line x1="74.1" y1="216.8" x2="75.4" y2="214.1"/>
<line x1="74.1" y1="216.8" x2="74.1" y2="213.8"/>
<line x1="74.1" y1="213.8" x2="72.8" y2="211.1"/>
<line x1="74.1" y1="213.8" x2="74.1" y2="210.8"/>
<line x1="74.1" y1="219.8" x2="75.4" y2="217.1"/>
<line x1="75.4" y1="217.1" x2="77.7" y2="215.2"/>
<line x1="75.4" y1="217.1" x2="76.7" y2="214.4"/>
<line x1="76.7" y1="214.4" x2="76.7" y2="211.4"/>
<line x1="76.7" y1="214.4" x2="78.0" y2="211.7"/>
<line x1="66.3" y1="236.0" x2="66.3" y2="233.0"/>
<line x1="66.3" y1="233.0" x2="67.6" y2="230.3"/>
<line x1="66.3" y1="233.0" x2="66.3" y2="230.0"/>
<line x1="66.3" y1="230.0" x2="65.0" y2="227.3"/>
<line x1="66.3" y1="230.0" x2="66.3" y2="227.0"/>
<line x1="66.3" y1="227.0" x2="67.6" y2="224.3"/>
<line x1="67.6" y1="224.3" x2="69.9" y2="222.4"/>
<line x1="67.6" y1="224.3" x2="68.9" y2="221.6"/>
<line x1="68.9" y1="221.6" x2="68.9" y2="218.6"/>
<line x1="68.9" y1="221.6" x2="70.2" y2="218.9"/>
<line x1="66.3" y1="227.0" x2="66.3" y2="224.0"/>
<line x1="66.3" y1="224.0" x2="67.6" y2="221.3"/>
<line x1="66.3" y1="224.0" x2="66.3" y2="221.0"/>
<line x1="66.3" y1="221.0" x2="65.0" y2="218.3"/>
<line x1="66.3" y1="221.0" x2="66.3" y2="218.0"/>
<line x1="66.3" y1="218.0" x2="65.0" y2="215.3"/>
<line x1="65.0" y1="215.3" x2="65.0" y2="212.3"/>
<line x1="65.0" y1="215.3" x2="63.7" y2="212.6"/>
<line x1="63.7" y1="212.6" x2="61.3" y2="210.7"/>
<line x1="63.7" y1="212.6" x2="62.4" y2="209.9"/>
<line x1="66.3" y1="218.0" x2="66.3" y2="215.0"/>
<line x1="66.3" y1="215.0" x2="67.6" y2="212.3"/>
<line x1="66.3" y1="215.0" x2="66.3" y2="212.0"/>
<line x1="66.3" y1="212.0" x2="65.0" y2="209.3"/>
<line x1="66.3" y1="212.0" x2="66.3" y2="209.0"/>
<line x1="66.3" y1="209.0" x2="65.0" y2="206.3"/>
<line x1="65.0" y1="206.3" x2="65.0" y2="203.3"/>
<line x1="65.0" y1="206.3" x2="63.7" y2="203.6"/>
<line x1="63.7" y1="203.6" x2="61.3" y2="201.7"/>
<line x1="63.7" y1="203.6" x2="62.4" y2="200.9"/>
<line x1="62.4" y1="200.9" x2="62.4" y2="197.9"/>
<line x1="62.4" y1="197.9" x2="63.7" y2="195.2"/>
<line x1="62.4" y1="197.9" x2="62.4" y2="194.9"/>
<line x1="62.4" y1="194.9" x2="61.1" y2="192.2"/>
<line x1="62.4" y1="194.9" x2="62.4" y2="191.9"/>
<line x1="62.4" y1="200.9" x2="61.1" y2="198.2"/>
<line x1="61.1" y1="198.2" x2="61.1" y2="195.2"/>
<line x1="61.1" y1="198.2" x2="59.8" y2="195.5"/>
<line x1="59.8" y1="195.5" x2="57.4" y2="193.6"/>
<line x1="59.8" y1="195.5" x2="58.5" y2="192.8"/>
<line x1="58.5" y1="192.8" x2="56.1" y2="190.9"/>
<line x1="56.1" y1="190.9" x2="54.8" y2="188.2"/>
<line x1="56.1" y1="190.9" x2="53.8" y2="189.0"/>
<line x1="53.8" y1="189.0" x2="50.8" y2="188.4"/>
<line x1="53.8" y1="189.0" x2="51.4" y2="187.2"/>
<line x1="58.5" y1="192.8" x2="57.2" y2="190.1"/>
<line x1="57.2" y1="190.1" x2="57.2" y2="187.1"/>
<line x1="57.2" y1="190.1" x2="55.9" y2="187.4"/>
<line x1="55.9" y1="187.4" x2="53.5" y2="185.5"/>
<line x1="55.9" y1="187.4" x2="54.6" y2="184.7"/>
<line x1="66.3" y1="209.0" x2="66.3" y2="206.0"/>
<line x1="66.3" y1="206.0" x2="67.6" y2="203.3"/>
<line x1="66.3" y1="206.0" x2="66.3" y2="203.0"/>
<line x1="66.3" y1="203.0" x2="65.0" y2="200.3"/>
<line x1="66.3" y1="203.0" x2="66.3" y2="200.0"/>
<line x1="66.3" y1="200.0" x2="67.6" y2="197.3"/>
<line x1="67.6" y1="197.3" x2="69.9" y2="195.4"/>
<line x1="67.6" y1="197.3" x2="68.9" y2="194.6"/>
<line x1="68.9" y1="194.6" x2="68.9" y2="191.6"/>
<line x1="68.9" y1="194.6" x2="70.2" y2="191.9"/>
<line x1="66.3" y1="200.0" x2="66.3" y2="197.0"/>
<line x1="66.3" y1="197.0" x2="67.6" y2="194.3"/>
<line x1="66.3" y1="197.0" x2="66.3" y2="194.0"/>
<line x1="66.3" y1="194.0" x2="65.0" y2="191.3"/>
<line x1="66.3" y1="194.0" x2="66.3" y2="191.0"/>
<line x1="66.3" y1="191.0" x2="65.0" y2="188.3"/>
<line x1="65.0" y1="188.3" x2="65.0" y2="185.3"/>
<line x1="65.0" y1="188.3" x2="63.7" y2="185.6"/>
<line x1="63.7" y1="185.6" x2="61.3" y2="183.7"/>
<line x1="63.7" y1="185.6" x2="62.4" y2="182.9"/>
<line x1="66.3" y1="191.0" x2="66.3" y2="188.0"/>
<line x1="66.3" y1="188.0" x2="67.6" y2="185.3"/>
<line x1="66.3" y1="188.0" x2="66.3" y2="185.0"/>
<line x1="66.3" y1="185.0" x2="65.0" y2="182.3"/>
<line x1="66.3" y1="185.0" x2="66.3" y2="182.0"/>
<line x1="66.3" y1="182.0" x2="67.6" y2="179.3"/>
<line x1="67.6" y1="179.3" x2="69.9" y2="177.4"/>
<line x1="67.6" y1="179.3" x2="68.9" y2="176.6"/>
<line x1="68.9" y1="176.6" x2="68.9" y2="173.6"/>
<line x1="68.9" y1="176.6" x2="70.2" y2="173.9"/>
<line x1="70.2" y1="173.9" x2="72.5" y2="172.0"/>
<line x1="72.5" y1="172.0" x2="75.4" y2="171.3"/>
<line x1="72.5" y1="172.0" x2="74.9" y2="170.1"/>
<line x1="74.9" y1="170.1" x2="76.2" y2="167.4"/>
<line x1="74.9" y1="170.1" x2="77.2" y2="168.3"/>
<line x1="70.2" y1="173.9" x2="71.5" y2="171.2"/>
<line x1="71.5" y1="171.2" x2="73.8" y2="169.3"/>
<line x1="71.5" y1="171.2" x2="72.8" y2="168.5"/>
<line x1="72.8" y1="168.5" x2="72.8" y2="165.5"/>
<line x1="72.8" y1="168.5" x2="74.1" y2="165.8"/>
<line x1="74.1" y1="165.8" x2="74.1" y2="162.8"/>
<line x1="74.1" y1="162.8" x2="75.4" y2="160.1"/>
<line x1="74.1" y1="162.8" x2="74.1" y2="159.8"/>
<line x1="74.1" y1="159.8" x2="72.8" y2="157.1"/>
<line x1="74.1" y1="159.8" x2="74.1" y2="156.8"/>
<line x1="74.1" y1="165.8" x2="75.4" y2="163.1"/>
<line x1="75.4" y1="163.1" x2="77.7" y2="161.2"/>
<line x1="75.4" y1="163.1" x2="76.7" y2="160.4"/>
<line x1="76.7" y1="160.4" x2="76.7" y2="157.4"/>
<line x1="76.7" y1="160.4" x2="78.0" y2="157.7"/>
<line x1="78.0" y1="157.7" x2="80.3" y2="155.8"/>
<line x1="80.3" y1="155.8" x2="83.2" y2="155.1"/>
<line x1="80.3" y1="155.8" x2="82.7" y2="153.9"/>
<line x1="82.7" y1="153.9" x2="84.0" y2="151.2"/>
<line x1="82.7" y1="153.9" x2="85.0" y2="152.1"/>
<line x1="85.0" y1="152.1" x2="87.9" y2="151.4"/>
<line x1="87.9" y1="151.4" x2="90.9" y2="152.1"/>
<line x1="87.9" y1="151.4" x2="90.9" y2="150.7"/>
<line x1="90.9" y1="150.7" x2="93.2" y2="148.8"/>
<line x1="90.9" y1="150.7" x2="93.8" y2="150.0"/>
<line x1="85.0" y1="152.1" x2="87.3" y2="150.2"/>
<line x1="87.3" y1="150.2" x2="90.3" y2="149.5"/>
<line x1="87.3" y1="150.2" x2="89.7" y2="148.3"/>
<line x1="89.7" y1="148.3" x2="91.0" y2="145.6"/>
<line x1="89.7" y1="148.3" x2="92.0" y2="146.4"/>
<line x1="92.0" y1="146.4" x2="93.3" y2="143.7"/>
<line x1="93.3" y1="143.7" x2="95.7" y2="141.9"/>
<line x1="93.3" y1="143.7" x2="94.6" y2="141.0"/>
<line x1="94.6" y1="141.0" x2="94.6" y2="138.0"/>
<line x1="94.6" y1="141.0" x2="95.9" y2="138.3"/>
<line x1="92.0" y1="146.4" x2="94.4" y2="144.6"/>
<line x1="94.4" y1="144.6" x2="97.3" y2="143.9"/>
<line x1="94.4" y1="144.6" x2="96.7" y2="142.7"/>
<line x1="96.7" y1="142.7" x2="98.0" y2="140.0"/>
<line x1="96.7" y1="142.7" x2="99.1" y2="140.8"/>
<line x1="78.0" y1="157.7" x2="79.3" y2="155.0"/>
<line x1="79.3" y1="155.0" x2="81.6" y2="153.1"/>
<line x1="79.3" y1="155.0" x2="80.6" y2="152.3"/>
<line x1="80.6" y1="152.3" x2="80.6" y2="149.3"/>
<line x1="80.6" y1="152.3" x2="81.9" y2="149.6"/>
<line x1="81.9" y1="149.6" x2="84.2" y2="147.7"/>
<line x1="84.2" y1="147.7" x2="87.1" y2="147.0"/>
<line x1="84.2" y1="147.7" x2="86.6" y2="145.8"/>
<line x1="86.6" y1="145.8" x2="87.9" y2="143.1"/>
<line x1="86.6" y1="145.8" x2="88.9" y2="143.9"/>
<line x1="81.9" y1="149.6" x2="83.2" y2="146.9"/>
<line x1="83.2" y1="146.9" x2="85.5" y2="145.0"/>
<line x1="83.2" y1="146.9" x2="84.5" y2="144.2"/>
<line x1="84.5" y1="144.2" x2="84.5" y2="141.2"/>
<line x1="84.5" y1="144.2" x2="85.8" y2="141.5"/>
<line x1="85.8" y1="141.5" x2="85.8" y2="138.5"/>
<line x1="85.8" y1="138.5" x2="87.1" y2="135.7"/>
<line x1="85.8" y1="138.5" x2="85.8" y2="135.5"/>
<line x1="85.8" y1="135.5" x2="84.5" y2="132.7"/>
<line x1="85.8" y1="135.5" x2="85.8" y2="132.5"/>
<line x1="85.8" y1="141.5" x2="87.1" y2="138.7"/>
<line x1="87.1" y1="138.7" x2="89.4" y2="136.9"/>
<line x1="87.1" y1="138.7" x2="88.4" y2="136.0"/>
<line x1="88.4" y1="136.0" x2="88.4" y2="133.0"/>
<line x1="88.4" y1="136.0" x2="89.7" y2="133.3"/>
<line x1="89.7" y1="133.3" x2="89.7" y2="130.3"/>
<line x1="89.7" y1="130.3" x2="91.0" y2="127.6"/>
<line x1="89.7" y1="130.3" x2="89.7" y2="127.3"/>
<line x1="89.7" y1="127.3" x2="88.4" y2="124.6"/>
<line x1="89.7" y1="127.3" x2="89.7" y2="124.3"/>
<line x1="89.7" y1="124.3" x2="91.0" y2="121.6"/>
<line x1="91.0" y1="121.6" x2="93.3" y2="119.8"/>
<line x1="91.0" y1="121.6" x2="92.3" y2="118.9"/>
<line x1="92.3" y1="118.9" x2="92.3" y2="115.9"/>
<line x1="92.3" y1="118.9" x2="93.6" y2="116.2"/>
<line x1="89.7" y1="124.3" x2="89.7" y2="121.3"/>
<line x1="89.7" y1="121.3" x2="91.0" y2="118.6"/>
<line x1="89.7" y1="121.3" x2="89.7" y2="118.3"/>
<line x1="89.7" y1="118.3" x2="88.4" y2="115.6"/>
<line x1="89.7" y1="118.3" x2="89.7" y2="115.3"/>
<line x1="89.7" y1="115.3" x2="88.4" y2="112.6"/>
<line x1="88.4" y1="112.6" x2="88.4" y2="109.6"/>
<line x1="88.4" y1="112.6" x2="87.1" y2="109.9"/>
<line x1="87.1" y1="109.9" x2="84.7" y2="108.1"/>
<line x1="87.1" y1="109.9" x2="85.8" y2="107.2"/>
<line x1="89.7" y1="115.3" x2="89.7" y2="112.3"/>
<line x1="89.7" y1="112.3" x2="91.0" y2="109.6"/>
<line x1="89.7" y1="112.3" x2="89.7" y2="109.3"/>
<line x1="89.7" y1="109.3" x2="88.4" y2="106.6"/>
<line x1="89.7" y1="109.3" x2="89.7" y2="106.3"/>
<line x1="89.7" y1="133.3" x2="91.0" y2="130.6"/>
<line x1="91.0" y1="130.6" x2="93.3" y2="128.8"/>
<line x1="91.0" y1="130.6" x2="92.3" y2="127.9"/>
<line x1="92.3" y1="127.9" x2="92.3" y2="124.9"/>
<line x1="92.3" y1="127.9" x2="93.6" y2="125.2"/>
<line x1="93.6" y1="125.2" x2="95.9" y2="123.4"/>
<line x1="95.9" y1="123.4" x2="98.8" y2="122.7"/>
<line x1="95.9" y1="123.4" x2="98.3" y2="121.5"/>
<line x1="98.3" y1="121.5" x2="99.6" y2="118.8"/>
<line x1="98.3" y1="121.5" x2="100.6" y2="119.6"/>
<line x1="93.6" y1="125.2" x2="94.9" y2="122.5"/>
<line x1="94.9" y1="122.5" x2="97.2" y2="120.7"/>
<line x1="94.9" y1="122.5" x2="96.2" y2="119.8"/>
<line x1="96.2" y1="119.8" x2="96.2" y2="116.8"/>
<line x1="96.2" y1="119.8" x2="97.5" y2="117.1"/>
<line x1="97.5" y1="117.1" x2="97.5" y2="114.1"/>
<line x1="97.5" y1="114.1" x2="98.8" y2="111.4"/>
<line x1="97.5" y1="114.1" x2="97.5" y2="111.1"/>
<line x1="97.5" y1="111.1" x2="96.2" y2="108.4"/>
<line x1="97.5" y1="111.1" x2="97.5" y2="108.1"/>
<line x1="97.5" y1="117.1" x2="98.8" y2="114.4"/>
<line x1="98.8" y1="114.4" x2="101.1" y2="112.5"/>
<line x1="98.8" y1="114.4" x2="100.1" y2="111.7"/>
<line x1="100.1" y1="111.7" x2="100.1" y2="108.7"/>
<line x1="100.1" y1="111.7" x2="101.4" y2="109.0"/>
<line x1="66.3" y1="182.0" x2="66.3" y2="179.0"/>
<line x1="66.3" y1="179.0" x2="67.6" y2="176.3"/>
<line x1="66.3" y1="179.0" x2="66.3" y2="176.0"/>
<line x1="66.3" y1="176.0" x2="65.0" y2="173.3"/>
<line x1="66.3" y1="176.0" x2="66.3" y2="173.0"/>
<line x1="66.3" y1="173.0" x2="67.6" y2="170.3"/>
<line x1="67.6" y1="170.3" x2="69.9" y2="168.4"/>
<line x1="67.6" y1="170.3" x2="68.9" y2="167.6"/>
<line x1="68.9" y1="167.6" x2="68.9" y2="164.6"/>
<line x1="68.9" y1="167.6" x2="70.2" y2="164.9"/>
<line x1="66.3" y1="173.0" x2="66.3" y2="170.0"/>
<line x1="66.3" y1="170.0" x2="67.6" y2="167.3"/>
<line x1="66.3" y1="170.0" x2="66.3" y2="167.0"/>
<line x1="66.3" y1="167.0" x2="65.0" y2="164.3"/>
<line x1="66.3" y1="167.0" x2="66.3" y2="164.0"/>
<line x1="66.3" y1="164.0" x2="65.0" y2="161.3"/>
<line x1="65.0" y1="161.3" x2="65.0" y2="158.3"/>
<line x1="65.0" y1="161.3" x2="63.7" y2="158.6"/>
<line x1="63.7" y1="158.6" x2="61.3" y2="156.7"/>
<line x1="63.7" y1="158.6" x2="62.4" y2="155.9"/>
<line x1="66.3" y1="164.0" x2="66.3" y2="161.0"/>
<line x1="66.3" y1="161.0" x2="67.6" y2="158.3"/>
<line x1="66.3" y1="161.0" x2="66.3" y2="158.0"/>
<line x1="66.3" y1="158.0" x2="65.0" y2="155.3"/>
<line x1="66.3" y1="158.0" x2="66.3" y2="155.0"/>
<line x1="66.3" y1="155.0" x2="67.6" y2="152.3"/>
<line x1="67.6" y1="152.3" x2="69.9" y2="150.4"/>
<line x1="67.6" y1="152.3" x2="68.9" y2="149.6"/>
<line x1="68.9" y1="149.6" x2="68.9" y2="146.6"/>
<line x1="68.9" y1="149.6" x2="70.2" y2="146.9"/>
<line x1="70.2" y1="146.9" x2="72.5" y2="145.0"/>
<line x1="72.5" y1="145.0" x2="75.4" y2="144.3"/>
<line x1="72.5" y1="145.0" x2="74.9" y2="143.1"/>
<line x1="74.9" y1="143.1" x2="76.2" y2="140.4"/>
<line x1="74.9" y1="143.1" x2="77.2" y2="141.3"/>
<line x1="70.2" y1="146.9" x2="71.5" y2="144.2"/>
<line x1="71.5" y1="144.2" x2="73.8" y2="142.3"/>
<line x1="71.5" y1="144.2" x2="72.8" y2="141.5"/>
<line x1="72.8" y1="141.5" x2="72.8" y2="138.5"/>
<line x1="72.8" y1="141.5" x2="74.1" y2="138.8"/>
<line x1="74.1" y1="138.8" x2="74.1" y2="135.8"/>
<line x1="74.1" y1="135.8" x2="75.4" y2="133.1"/>
<line x1="74.1" y1="135.8" x2="74.1" y2="132.8"/>
<line x1="74.1" y1="132.8" x2="72.8" y2="130.1"/>
<line x1="74.1" y1="132.8" x2="74.1" y2="129.8"/>
<line x1="74.1" y1="138.8" x2="75.4" y2="136.1"/>
<line x1="75.4" y1="136.1" x2="77.7" y2="134.2"/>
<line x1="75.4" y1="136.1" x2="76.7" y2="133.4"/>
<line x1="76.7" y1="133.4" x2="76.7" y2="130.4"/>
<line x1="76.7" y1="133.4" x2="78.0" y2="130.7"/>
<line x1="66.3" y1="155.0" x2="66.3" y2="152.0"/>
<line x1="66.3" y1="152.0" x2="67.6" y2="149.3"/>
<line x1="66.3" y1="152.0" x2="66.3" y2="149.0"/>
<line x1="66.3" y1="149.0" x2="65.0" y2="146.3"/>
<line x1="66.3" y1="149.0" x2="66.3" y2="146.0"/>
<line x1="66.3" y1="146.0" x2="67.6" y2="143.3"/>
<line x1="67.6" y1="143.3" x2="69.9" y2="141.4"/>
<line x1="67.6" y1="143.3" x2="68.9" y2="140.6"/>
<line x1="68.9" y1="140.6" x2="68.9" y2="137.6"/>
<line x1="68.9" y1="140.6" x2="70.2" y2="137.9"/>
<line x1="66.3" y1="146.0" x2="66.3" y2="143.0"/>
<line x1="66.3" y1="143.0" x2="67.6" y2="140.3"/>
<line x1="66.3" y1="143.0" x2="66.3" y2="140.0"/>
<line x1="66.3" y1="140.0" x2="65.0" y2="137.3"/>
<line x1="66.3" y1="140.0" x2="66.3" y2="137.0"/>
<line x1="66.3" y1="137.0" x2="65.0" y2="134.3"/>
<line x1="65.0" y1="134.3" x2="65.0" y2="131.3"/>
<line x1="65.0" y1="134.3" x2="63.7" y2="131.6"/>
<line x1="63.7" y1="131.6" x2="61.3" y2="129.7"/>
<line x1="63.7" y1="131.6" x2="62.4" y2="128.9"/>
<line x1="66.3" y1="137.0" x2="66.3" y2="134.0"/>
<line x1="66.3" y1="134.0" x2="67.6" y2="131.3"/>
<line x1="66.3" y1="134.0" x2="66.3" y2="131.0"/>
<line x1="66.3" y1="131.0" x2="65.0" y2="128.3"/>
<line x1="66.3" y1="131.0" x2="66.3" y2="128.0"/>
<line x1="66.3" y1="128.0" x2="65.0" y2="125.3"/>
<line x1="65.0" y1="125.3" x2="65.0" y2="122.3"/>
<line x1="65.0" y1="125.3" x2="63.7" y2="122.6"/>
<line x1="63.7" y1="122.6" x2="61.3" y2="120.7"/>
<line x1="63.7" y1="122.6" x2="62.4" y2="119.9"/>
<line x1="62.4" y1="119.9" x2="62.4" y2="116.9"/>
<line x1="62.4" y1="116.9" x2="63.7" y2="114.2"/>
<line x1="62.4" y1="116.9" x2="62.4" y2="113.9"/>
<line x1="62.4" y1="113.9" x2="61.1" y2="111.2"/>
<line x1="62.4" y1="113.9" x2="62.4" y2="110.9"/>
<line x1="62.4" y1="119.9" x2="61.1" y2="117.2"/>
<line x1="61.1" y1="117.2" x2="61.1" y2="114.2"/>
<line x1="61.1" y1="117.2" x2="59.8" y2="114.5"/>
<line x1="59.8" y1="114.5" x2="57.4" y2="112.6"/>
<line x1="59.8" y1="114.5" x2="58.5" y2="111.8"/>
<line x1="58.5" y1="111.8" x2="56.1" y2="109.9"/>
<line x1="56.1" y1="109.9" x2="54.8" y2="107.2"/>
<line x1="56.1" y1="109.9" x2="53.8" y2="108.0"/>
<line x1="53.8" y1="108.0" x2="50.8" y2="107.4"/>
<line x1="53.8" y1="108.0" x2="51.4" y2="106.2"/>
<line x1="58.5" y1="111.8" x2="57.2" y2="109.1"/>
<line x1="57.2" y1="109.1" x2="57.2" y2="106.1"/>
<line x1="57.2" y1="109.1" x2="55.9" y2="106.4"/>
<line x1="55.9" y1="106.4" x2="53.5" y2="104.5"/>
<line x1="55.9" y1="106.4" x2="54.6" y2="103.7"/>
<line x1="66.3" y1="128.0" x2="66.3" y2="125.0"/>
<line x1="66.3" y1="125.0" x2="67.6" y2="122.3"/>
<line x1="66.3" y1="125.0" x2="66.3" y2="122.0"/>
<line x1="66.3" y1="122.0" x2="65.0" y2="119.3"/>
<line x1="66.3" y1="122.0" x2="66.3" y2="119.0"/>
<line x1="66.3" y1="119.0" x2="67.6" y2="116.3"/>
<line x1="67.6" y1="116.3" x2="69.9" y2="114.4"/>
<line x1="67.6" y1="116.3" x2="68.9" y2="113.6"/>
<line x1="68.9" y1="113.6" x2="68.9" y2="110.6"/>
<line x1="68.9" y1="113.6" x2="70.2" y2="110.9"/>
<line x1="66.3" y1="119.0" x2="66.3" y2="116.0"/>
<line x1="66.3" y1="116.0" x2="67.6" y2="113.3"/>
<line x1="66.3" y1="116.0" x2="66.3" y2="113.0"/>
<line x1="66.3" y1="113.0" x2="65.0" y2="110.3"/>
<line x1="66.3" y1="113.0" x2="66.3" y2="110.0"/>
<line x1="66.3" y1="110.0" x2="65.0" y2="107.3"/>
<line x1="65.0" y1="107.3" x2="65.0" y2="104.3"/>
<line x1="65.0" y1="107.3" x2="63.7" y2="104.6"/>
<line x1="63.7" y1="104.6" x2="61.3" y2="102.7"/>
<line x1="63.7" y1="104.6" x2="62.4" y2="101.9"/>
<line x1="66.3" y1="110.0" x2="66.3" y2="107.0"/>
<line x1="66.3" y1="107.0" x2="67.6" y2="104.3"/>
<line x1="66.3" y1="107.0" x2="66.3" y2="104.0"/>
<line x1="66.3" y1="104.0" x2="65.0" y2="101.3"/>
<line x1="66.3" y1="104.0" x2="66.3" y2="101.0"/>
<line x1="66.3" y1="101.0" x2="65.0" y2="98.3"/>
<line x1="65.0" y1="98.3" x2="65.0" y2="95.3"/>
<line x1="65.0" y1="98.3" x2="63.7" y2="95.6"/>
<line x1="63.7" y1="95.6" x2="61.3" y2="93.7"/>
<line x1="63.7" y1="95.6" x2="62.4" y2="92.9"/>
<line x1="62.4" y1="92.9" x2="62.4" y2="89.9"/>
<line x1="62.4" y1="89.9" x2="63.7" y2="87.2"/>
<line x1="62.4" y1="89.9" x2="62.4" y2="86.9"/>
<line x1="62.4" y1="86.9" x2="61.1" y2="84.2"/>
<line x1="62.4" y1="86.9" x2="62.4" y2="83.9"/>
<line x1="62.4" y1="92.9" x2="61.1" y2="90.2"/>
<line x1="61.1" y1="90.2" x2="61.1" y2="87.2"/>
<line x1="61.1" y1="90.2" x2="59.8" y2="87.5"/>
<line x1="59.8" y1="87.5" x2="57.4" y2="85.6"/>
<line x1="59.8" y1="87.5" x2="58.5" y2="84.8"/>
<line x1="58.5" y1="84.8" x2="56.1" y2="82.9"/>
<line x1="56.1" y1="82.9" x2="54.8" y2="80.2"/>
<line x1="56.1" y1="82.9" x2="53.8" y2="81.0"/>
<line x1="53.8" y1="81.0" x2="50.8" y2="80.4"/>
<line x1="53.8" y1="81.0" x2="51.4" y2="79.2"/>
<line x1="58.5" y1="84.8" x2="57.2" y2="82.1"/>
<line x1="57.2" y1="82.1" x2="57.2" y2="79.1"/>
<line x1="57.2" y1="82.1" x2="55.9" y2="79.4"/>
<line x1="55.9" y1="79.4" x2="53.5" y2="77.5"/>
<line x1="55.9" y1="79.4" x2="54.6" y2="76.7"/>
<line x1="54.6" y1="76.7" x2="54.6" y2="73.7"/>
<line x1="54.6" y1="73.7" x2="55.9" y2="71.0"/>
<line x1="54.6" y1="73.7" x2="54.6" y2="70.7"/>
<line x1="54.6" y1="70.7" x2="53.2" y2="68.0"/>
<line x1="54.6" y1="70.7" x2="54.6" y2="67.7"/>
<line x1="54.6" y1="67.7" x2="55.9" y2="65.0"/>
<line x1="55.9" y1="65.0" x2="58.2" y2="63.1"/>
<line x1="55.9" y1="65.0" x2="57.2" y2="62.3"/>
<line x1="57.2" y1="62.3" x2="57.2" y2="59.3"/>
<line x1="57.2" y1="62.3" x2="58.5" y2="59.6"/>
<line x1="54.6" y1="67.7" x2="54.6" y2="64.7"/>
<line x1="54.6" y1="64.7" x2="55.9" y2="62.0"/>
<line x1="54.6" y1="64.7" x2="54.6" y2="61.7"/>
<line x1="54.6" y1="61.7" x2="53.2" y2="59.0"/>
<line x1="54.6" y1="61.7" x2="54.6" y2="58.7"/>
<line x1="54.6" y1="58.7" x2="53.2" y2="56.0"/>
<line x1="53.2" y1="56.0" x2="53.2" y2="53.0"/>
<line x1="53.2" y1="56.0" x2="51.9" y2="53.3"/>
<line x1="51.9" y1="53.3" x2="49.6" y2="51.4"/>
<line x1="51.9" y1="53.3" x2="50.6" y2="50.6"/>
<line x1="54.6" y1="58.7" x2="54.6" y2="55.7"/>
<line x1="54.6" y1="55.7" x2="55.9" y2="53.0"/>
<line x1="54.6" y1="55.7" x2="54.6" y2="52.7"/>
<line x1="54.6" y1="52.7" x2="53.2" y2="50.0"/>
<line x1="54.6" y1="52.7" x2="54.6" y2="49.7"/>
<line x1="54.6" y1="76.7" x2="53.2" y2="74.0"/>
<line x1="53.2" y1="74.0" x2="53.2" y2="71.0"/>
<line x1="53.2" y1="74.0" x2="51.9" y2="71.3"/>
<line x1="51.9" y1="71.3" x2="49.6" y2="69.4"/>
<line x1="51.9" y1="71.3" x2="50.6" y2="68.6"/>
<line x1="50.6" y1="68.6" x2="50.6" y2="65.6"/>
<line x1="50.6" y1="65.6" x2="51.9" y2="62.9"/>
<line x1="50.6" y1="65.6" x2="50.6" y2="62.6"/>
<line x1="50.6" y1="62.6" x2="49.3" y2="59.9"/>
<line x1="50.6" y1="62.6" x2="50.6" y2="59.6"/>
<line x1="50.6" y1="68.6" x2="49.3" y2="65.9"/>
<line x1="49.3" y1="65.9" x2="49.3" y2="62.9"/>
<line x1="49.3" y1="65.9" x2="48.0" y2="63.2"/>
<line x1="48.0" y1="63.2" x2="45.7" y2="61.3"/>
<line x1="48.0" y1="63.2" x2="46.7" y2="60.5"/>
<line x1="46.7" y1="60.5" x2="44.4" y2="58.6"/>
<line x1="44.4" y1="58.6" x2="43.1" y2="55.9"/>
<line x1="44.4" y1="58.6" x2="42.1" y2="56.7"/>
<line x1="42.1" y1="56.7" x2="39.1" y2="56.0"/>
<line x1="42.1" y1="56.7" x2="39.7" y2="54.8"/>
<line x1="46.7" y1="60.5" x2="45.4" y2="57.7"/>
<line x1="45.4" y1="57.7" x2="45.4" y2="54.7"/>
<line x1="45.4" y1="57.7" x2="44.1" y2="55.0"/>
<line x1="44.1" y1="55.0" x2="41.8" y2="53.2"/>
<line x1="44.1" y1="55.0" x2="42.8" y2="52.3"/>
<line x1="42.8" y1="52.3" x2="40.5" y2="50.5"/>
<line x1="40.5" y1="50.5" x2="39.2" y2="47.8"/>
<line x1="40.5" y1="50.5" x2="38.2" y2="48.6"/>
<line x1="38.2" y1="48.6" x2="35.2" y2="47.9"/>
<line x1="38.2" y1="48.6" x2="35.8" y2="46.7"/>
<line x1="35.8" y1="46.7" x2="34.5" y2="44.0"/>
<line x1="34.5" y1="44.0" x2="34.5" y2="41.0"/>
<line x1="34.5" y1="44.0" x2="33.2" y2="41.3"/>
<line x1="33.2" y1="41.3" x2="30.9" y2="39.4"/>
<line x1="33.2" y1="41.3" x2="31.9" y2="38.6"/>
<line x1="35.8" y1="46.7" x2="33.5" y2="44.9"/>
<line x1="33.5" y1="44.9" x2="32.2" y2="42.2"/>
<line x1="33.5" y1="44.9" x2="31.1" y2="43.0"/>
<line x1="31.1" y1="43.0" x2="28.2" y2="42.3"/>
<line x1="31.1" y1="43.0" x2="28.8" y2="41.1"/>
<line x1="28.8" y1="41.1" x2="25.8" y2="40.4"/>
<line x1="25.8" y1="40.4" x2="23.5" y2="38.6"/>
<line x1="25.8" y1="40.4" x2="22.9" y2="39.8"/>
<line x1="22.9" y1="39.8" x2="20.0" y2="40.4"/>
<line x1="22.9" y1="39.8" x2="20.0" y2="39.1"/>
<line x1="28.8" y1="41.1" x2="26.4" y2="39.2"/>
<line x1="26.4" y1="39.2" x2="25.1" y2="36.5"/>
<line x1="26.4" y1="39.2" x2="24.1" y2="37.4"/>
<line x1="24.1" y1="37.4" x2="21.2" y2="36.7"/>
<line x1="24.1" y1="37.4" x2="21.7" y2="35.5"/>
<line x1="42.8" y1="52.3" x2="41.5" y2="49.6"/>
<line x1="41.5" y1="49.6" x2="41.5" y2="46.6"/>
<line x1="41.5" y1="49.6" x2="40.2" y2="46.9"/>
<line x1="40.2" y1="46.9" x2="37.9" y2="45.1"/>
<line x1="40.2" y1="46.9" x2="38.9" y2="44.2"/>
<line x1="38.9" y1="44.2" x2="38.9" y2="41.2"/>
<line x1="38.9" y1="41.2" x2="40.2" y2="38.5"/>
<line x1="38.9" y1="41.2" x2="38.9" y2="38.2"/>
<line x1="38.9" y1="38.2" x2="37.6" y2="35.5"/>
<line x1="38.9" y1="38.2" x2="38.9" y2="35.2"/>
<line x1="38.9" y1="44.2" x2="37.6" y2="41.5"/>
<line x1="37.6" y1="41.5" x2="37.6" y2="38.5"/>
<line x1="37.6" y1="41.5" x2="36.3" y2="38.8"/>
<line x1="36.3" y1="38.8" x2="34.0" y2="37.0"/>
<line x1="36.3" y1="38.8" x2="35.0" y2="36.1"/>
<line x1="35.0" y1="36.1" x2="32.7" y2="34.3"/>
<line x1="32.7" y1="34.3" x2="31.4" y2="31.5"/>
<line x1="32.7" y1="34.3" x2="30.3" y2="32.4"/>
<line x1="30.3" y1="32.4" x2="27.4" y2="31.7"/>
<line x1="30.3" y1="32.4" x2="28.0" y2="30.5"/>
<line x1="35.0" y1="36.1" x2="33.7" y2="33.4"/>
<line x1="33.7" y1="33.4" x2="33.7" y2="30.4"/>
<line x1="33.7" y1="33.4" x2="32.4" y2="30.7"/>
<line x1="32.4" y1="30.7" x2="30.1" y2="28.8"/>
<line x1="32.4" y1="30.7" x2="31.1" y2="28.0"/>
<line x1="66.3" y1="101.0" x2="66.3" y2="98.0"/>
<line x1="66.3" y1="98.0" x2="67.6" y2="95.3"/>
<line x1="66.3" y1="98.0" x2="66.3" y2="95.0"/>
<line x1="66.3" y1="95.0" x2="65.0" y2="92.3"/>
<line x1="66.3" y1="95.0" x2="66.3" y2="92.0"/>
<line x1="66.3" y1="92.0" x2="67.6" y2="89.3"/>
<line x1="67.6" y1="89.3" x2="69.9" y2="87.4"/>
<line x1="67.6" y1="89.3" x2="68.9" y2="86.6"/>
<line x1="68.9" y1="86.6" x2="68.9" y2="83.6"/>
<line x1="68.9" y1="86.6" x2="70.2" y2="83.9"/>
<line x1="66.3" y1="92.0" x2="66.3" y2="89.0"/>
<line x1="66.3" y1="89.0" x2="67.6" y2="86.3"/>
<line x1="66.3" y1="89.0" x2="66.3" y2="86.0"/>
<line x1="66.3" y1="86.0" x2="65.0" y2="83.3"/>
<line x1="66.3" y1="86.0" x2="66.3" y2="83.0"/>
<line x1="66.3" y1="83.0" x2="65.0" y2="80.3"/>
<line x1="65.0" y1="80.3" x2="65.0" y2="77.3"/>
<line x1="65.0" y1="80.3" x2="63.7" y2="77.6"/>
<line x1="63.7" y1="77.6" x2="61.3" y2="75.7"/>
<line x1="63.7" y1="77.6" x2="62.4" y2="74.9"/>
<line x1="66.3" y1="83.0" x2="66.3" y2="80.0"/>
<line x1="66.3" y1="80.0" x2="67.6" y2="77.3"/>
<line x1="66.3" y1="80.0" x2="66.3" y2="77.0"/>
<line x1="66.3" y1="77.0" x2="65.0" y2="74.3"/>
<line x1="66.3" y1="77.0" x2="66.3" y2="74.0"/>
<line x1="66.3" y1="74.0" x2="67.6" y2="71.3"/>
<line x1="67.6" y1="71.3" x2="69.9" y2="69.4"/>
<line x1="67.6" y1="71.3" x2="68.9" y2="68.6"/>
<line x1="68.9" y1="68.6" x2="68.9" y2="65.6"/>
<line x1="68.9" y1="68.6" x2="70.2" y2="65.9"/>
<line x1="70.2" y1="65.9" x2="72.5" y2="64.0"/>
<line x1="72.5" y1="64.0" x2="75.4" y2="63.3"/>
<line x1="72.5" y1="64.0" x2="74.9" y2="62.1"/>
<line x1="74.9" y1="62.1" x2="76.2" y2="59.4"/>
<line x1="74.9" y1="62.1" x2="77.2" y2="60.3"/>
<line x1="70.2" y1="65.9" x2="71.5" y2="63.2"/>
<line x1="71.5" y1="63.2" x2="73.8" y2="61.3"/>
<line x1="71.5" y1="63.2" x2="72.8" y2="60.5"/>
<line x1="72.8" y1="60.5" x2="72.8" y2="57.5"/>
<line x1="72.8" y1="60.5" x2="74.1" y2="57.8"/>
<line x1="74.1" y1="57.8" x2="74.1" y2="54.8"/>
<line x1="74.1" y1="54.8" x2="75.4" y2="52.1"/>
<line x1="74.1" y1="54.8" x2="74.1" y2="51.8"/>
<line x1="74.1" y1="51.8" x2="72.8" y2="49.1"/>
<line x1="74.1" y1="51.8" x2="74.1" y2="48.8"/>
<line x1="74.1" y1="57.8" x2="75.4" y2="55.1"/>
<line x1="75.4" y1="55.1" x2="77.7" y2="53.2"/>
<line x1="75.4" y1="55.1" x2="76.7" y2="52.4"/>
<line x1="76.7" y1="52.4" x2="76.7" y2="49.4"/>
<line x1="76.7" y1="52.4" x2="78.0" y2="49.7"/>
<line x1="66.3" y1="74.0" x2="66.3" y2="71.0"/>
<line x1="66.3" y1="71.0" x2="67.6" y2="68.3"/>
<line x1="66.3" y1="71.0" x2="66.3" y2="68.0"/>
<line x1="66.3" y1="68.0" x2="65.0" y2="65.3"/>
<line x1="66.3" y1="68.0" x2="66.3" y2="65.0"/>
<line x1="66.3" y1="65.0" x2="67.6" y2="62.3"/>
<line x1="67.6" y1="62.3" x2="69.9" y2="60.4"/>
<line x1="67.6" y1="62.3" x2="68.9" y2="59.6"/>
<line x1="68.9" y1="59.6" x2="68.9" y2="56.6"/>
<line x1="68.9" y1="59.6" x2="70.2" y2="56.9"/>
<line x1="66.3" y1="65.0" x2="66.3" y2="62.0"/>
<line x1="66.3" y1="62.0" x2="67.6" y2="59.3"/>
<line x1="66.3" y1="62.0" x2="66.3" y2="59.0"/>
<line x1="66.3" y1="59.0" x2="65.0" y2="56.3"/>
<line x1="66.3" y1="59.0" x2="66.3" y2="56.0"/>
<line x1="66.3" y1="56.0" x2="65.0" y2="53.3"/>
<line x1="65.0" y1="53.3" x2="65.0" y2="50.3"/>
<line x1="65.0" y1="53.3" x2="63.7" y2="50.6"/>
<line x1="63.7" y1="50.6" x2="61.3" y2="48.7"/>
<line x1="63.7" y1="50.6" x2="62.4" y2="47.9"/>
<line x1="66.3" y1="56.0" x2="66.3" y2="53.0"/>
<line x1="66.3" y1="53.0" x2="67.6" y2="50.3"/>
<line x1="66.3" y1="53.0" x2="66.3" y2="50.0"/>
<line x1="66.3" y1="50.0" x2="65.0" y2="47.3"/>
<line x1="66.3" y1="50.0" x2="66.3" y2="47.0"/>
<line x1="66.3" y1="47.0" x2="65.0" y2="44.3"/>
<line x1="65.0" y1="44.3" x2="65.0" y2="41.3"/>
<line x1="65.0" y1="44.3" x2="63.7" y2="41.6"/>
<line x1="63.7" y1="41.6" x2="61.3" y2="39.7"/>
<line x1="63.7" y1="41.6" x2="62.4" y2="38.9"/>
<line x1="62.4" y1="38.9" x2="62.4" y2="35.9"/>
<line x1="62.4" y1="35.9" x2="63.7" y2="33.2"/>
<line x1="62.4" y1="35.9" x2="62.4" y2="32.9"/>
<line x1="62.4" y1="32.9" x2="61.1" y2="30.2"/>
<line x1="62.4" y1="32.9" x2="62.4" y2="29.9"/>
<line x1="62.4" y1="38.9" x2="61.1" y2="36.2"/>
<line x1="61.1" y1="36.2" x2="61.1" y2="33.2"/>
<line x1="61.1" y1="36.2" x2="59.8" y2="33.5"/>
<line x1="59.8" y1="33.5" x2="57.4" y2="31.6"/>
<line x1="59.8" y1="33.5" x2="58.5" y2="30.8"/>
<line x1="58.5" y1="30.8" x2="56.1" y2="28.9"/>
<line x1="56.1" y1="28.9" x2="54.8" y2="26.2"/>
<line x1="56.1" y1="28.9" x2="53.8" y2="27.0"/>
<line x1="53.8" y1="27.0" x2="50.8" y2="26.4"/>
<line x1="53.8" y1="27.0" x2="51.4" y2="25.2"/>
<line x1="58.5" y1="30.8" x2="57.2" y2="28.1"/>
<line x1="57.2" y1="28.1" x2="57.2" y2="25.1"/>
<line x1="57.2" y1="28.1" x2="55.9" y2="25.4"/>
<line x1="55.9" y1="25.4" x2="53.5" y2="23.5"/>
<line x1="55.9" y1="25.4" x2="54.6" y2="22.7"/>
<line x1="66.3" y1="47.0" x2="66.3" y2="44.0"/>
<line x1="66.3" y1="44.0" x2="67.6" y2="41.3"/>
<line x1="66.3" y1="44.0" x2="66.3" y2="41.0"/>
<line x1="66.3" y1="41.0" x2="65.0" y2="38.3"/>
<line x1="66.3" y1="41.0" x2="66.3" y2="38.0"/>
<line x1="66.3" y1="38.0" x2="67.6" y2="35.3"/>
<line x1="67.6" y1="35.3" x2="69.9" y2="33.4"/>
<line x1="67.6" y1="35.3" x2="68.9" y2="32.6"/>
<line x1="68.9" y1="32.6" x2="68.9" y2="29.6"/>
<line x1="68.9" y1="32.6" x2="70.2" y2="29.9"/>
<line x1="66.3" y1="38.0" x2="66.3" y2="35.0"/>
<line x1="66.3" y1="35.0" x2="67.6" y2="32.3"/>
<line x1="66.3" y1="35.0" x2="66.3" y2="32.0"/>
<line x1="66.3" y1="32.0" x2="65.0" y2="29.3"/>
<line x1="66.3" y1="32.0" x2="66.3" y2="29.0"/>
<line x1="66.3" y1="29.0" x2="65.0" y2="26.3"/>
<line x1="65.0" y1="26.3" x2="65.0" y2="23.3"/>
<line x1="65.0" y1="26.3" x2="63.7" y2="23.6"/>
<line x1="63.7" y1="23.6" x2="61.3" y2="21.7"/>
<line x1="63.7" y1="23.6" x2="62.4" y2="20.9"/>
<line x1="66.3" y1="29.0" x2="66.3" y2="26.0"/>
<line x1="66.3" y1="26.0" x2="67.6" y2="23.3"/>
<line x1="66.3" y1="26.0" x2="66.3" y2="23.0"/>
<line x1="66.3" y1="23.0" x2="65.0" y2="20.3"/>
<line x1="66.3" y1="23.0" x2="66.3" y2="20.0"/>
</g>
</svg>