<svg xmlns="http://www.w3.org/2000/svg" width="321" height="284">
<rect width="100%" height="100%" fill="#f8f6f0"/>
<g stroke="#1a3a5c" stroke-width="0.6" stroke-linecap="round">
<line x1="230.4" y1="263.0" x2="230.4" y2="260.0"/>
<line x1="230.4" y1="260.0" x2="233.0" y2="258.5"/>
<line x1="233.0" y1="258.5" x2="230.4" y2="257.0"/>
<line x1="230.4" y1="257.0" x2="230.4" y2="254.0"/>
<line x1="230.4" y1="254.0" x2="233.0" y2="252.5"/>
<line x1="233.0" y1="252.5" x2="235.6" y2="254.0"/>
<line x1="235.6" y1="254.0" x2="235.6" y2="251.0"/>
<line x1="235.6" y1="251.0" x2="238.2" y2="249.5"/>
<line x1="238.2" y1="249.5" x2="235.6" y2="248.0"/>
<line x1="235.6" y1="248.0" x2="235.6" y2="245.0"/>
<line x1="235.6" y1="245.0" x2="233.0" y2="246.5"/>
<line x1="233.0" y1="246.5" x2="230.4" y2="245.0"/>
<line x1="230.4" y1="245.0" x2="230.4" y2="242.0"/>
<line x1="230.4" y1="242.0" x2="233.0" y2="240.5"/>
<line x1="233.0" y1="240.5" x2="230.4" y2="239.0"/>
<line x1="230.4" y1="239.0" x2="230.4" y2="236.0"/>
<line x1="230.4" y1="236.0" x2="233.0" y2="234.5"/>
<line x1="233.0" y1="234.5" x2="235.6" y2="236.0"/>
<line x1="235.6" y1="236.0" x2="235.6" y2="233.0"/>
<line x1="235.6" y1="233.0" x2="238.2" y2="231.5"/>
<line x1="238.2" y1="231.5" x2="240.8" y2="233.0"/>
<line x1="240.8" y1="233.0" x2="240.8" y2="236.0"/>
<line x1="240.8" y1="236.0" x2="243.4" y2="234.5"/>
<line x1="243.4" y1="234.5" x2="246.0" y2="236.0"/>
<line x1="246.0" y1="236.0" x2="246.0" y2="233.0"/>
<line x1="246.0" y1="233.0" x2="248.6" y2="231.5"/>
<line x1="248.6" y1="231.5" x2="246.0" y2="230.0"/>
<line x1="246.0" y1="230.0" x2="246.0" y2="227.0"/>
<line x1="246.0" y1="227.0" x2="248.6" y2="225.5"/>
<line x1="248.6" y1="225.5" x2="251.2" y2="227.0"/>
<line x1="251.2" y1="227.0" x2="251.2" y2="224.0"/>
<line x1="251.2" y1="224.0" x2="253.8" y2="222.5"/>
<line x1="253.8" y1="222.5" x2="251.2" y2="221.0"/>
<line x1="251.2" y1="221.0" x2="251.2" y2="218.0"/>
<line x1="251.2" y1="218.0" x2="248.6" y2="219.5"/>
<line x1="248.6" y1="219.5" x2="246.0" y2="218.0"/>
<line x1="246.0" y1="218.0" x2="246.0" y2="215.0"/>
<line x1="246.0" y1="215.0" x2="248.6" y2="213.5"/>
<line x1="248.6" y1="213.5" x2="246.0" y2="212.0"/>
<line x1="246.0" y1="212.0" x2="246.0" y2="209.0"/>
<line x1="246.0" y1="209.0" x2="243.4" y2="210.5"/>
<line x1="243.4" y1="210.5" x2="240.8" y2="209.0"/>
<line x1="240.8" y1="209.0" x2="240.8" y2="212.0"/>
<line x1="240.8" y1="212.0" x2="238.2" y2="213.5"/>
<line x1="238.2" y1="213.5" x2="235.6" y2="212.0"/>
<line x1="235.6" y1="212.0" x2="235.6" y2="209.0"/>
<line x1="235.6" y1="209.0" x2="233.0" y2="210.5"/>
<line x1="233.0" y1="210.5" x2="230.4" y2="209.0"/>
<line x1="230.4" y1="209.0" x2="230.4" y2="206.0"/>
<line x1="230.4" y1="206.0" x2="233.0" y2="204.5"/>
<line x1="233.0" y1="204.5" x2="230.4" y2="203.0"/>
<line x1="230.4" y1="203.0" x2="230.4" y2="200.0"/>
<line x1="230.4" y1="200.0" x2="233.0" y2="198.5"/>
<line x1="233.0" y1="198.5" x2="235.6" y2="200.0"/>
<line x1="235.6" y1="200.0" x2="235.6" y2="197.0"/>
<line x1="235.6" y1="197.0" x2="238.2" y2="195.5"/>
<line x1="238.2" y1="195.5" x2="235.6" y2="194.0"/>
<line x1="235.6" y1="194.0" x2="235.6" y2="191.0"/>
<line x1="235.6" y1="191.0" x2="233.0" y2="192.5"/>
<line x1="233.0" y1="192.5" x2="230.4" y2="191.0"/>
<line x1="230.4" y1="191.0" x2="230.4" y2="188.0"/>
<line x1="230.4" y1="188.0" x2="233.0" y2="186.5"/>
<line x1="233.0" y1="186.5" x2="230.4" y2="185.0"/>
<line x1="230.4" y1="185.0" x2="230.4" y2="182.0"/>
<line x1="230.4" y1="182.0" x2="233.0" y2="180.5"/>
<line x1="233.0" y1="180.5" x2="235.6" y2="182.0"/>
<line x1="235.6" y1="182.0" x2="235.6" y2="179.0"/>
<line x1="235.6" y1="179.0" x2="238.2" y2="177.5"/>
<line x1="238.2" y1="177.5" x2="240.8" y2="179.0"/>
<line x1="240.8" y1="179.0" x2="240.8" y2="182.0"/>
<line x1="240.8" y1="182.0" x2="243.4" y2="180.5"/>
<line x1="243.4" y1="180.5" x2="246.0" y2="182.0"/>
<line x1="246.0" y1="182.0" x2="246.0" y2="179.0"/>
<line x1="246.0" y1="179.0" x2="248.6" y2="177.5"/>
<line x1="248.6" y1="177.5" x2="246.0" y2="176.0"/>
<line x1="246.0" y1="176.0" x2="246.0" y2="173.0"/>
<line x1="246.0" y1="173.0" x2="248.6" y2="171.5"/>
<line x1="248.6" y1="171.5" x2="251.2" y2="173.0"/>
<line x1="251.2" y1="173.0" x2="251.2" y2="170.0"/>
<line x1="251.2" y1="170.0" x2="253.8" y2="168.5"/>
<line x1="253.8" y1="168.5" x2="256.4" y2="170.0"/>
<line x1="256.4" y1="170.0" x2="256.4" y2="173.0"/>
<line x1="256.4" y1="173.0" x2="259.0" y2="171.5"/>
<line x1="259.0" y1="171.5" x2="261.6" y2="173.0"/>
<line x1="261.6" y1="173.0" x2="261.6" y2="176.0"/>
<line x1="261.6" y1="176.0" x2="259.0" y2="177.5"/>
<line x1="259.0" y1="177.5" x2="261.6" y2="179.0"/>
<line x1="261.6" y1="179.0" x2="261.6" y2="182.0"/>
<line x1="261.6" y1="182.0" x2="264.2" y2="180.5"/>
<line x1="264.2" y1="180.5" x2="266.8" y2="182.0"/>
<line x1="266.8" y1="182.0" x2="266.8" y2="179.0"/>
<line x1="266.8" y1="179.0" x2="269.4" y2="177.5"/>
<line x1="269.4" y1="177.5" x2="272.0" y2="179.0"/>
<line x1="272.0" y1="179.0" x2="272.0" y2="182.0"/>
<line x1="272.0" y1="182.0" x2="274.6" y2="180.5"/>
<line x1="274.6" y1="180.5" x2="277.2" y2="182.0"/>
<line x1="277.2" y1="182.0" x2="277.2" y2="179.0"/>
<line x1="277.2" y1="179.0" x2="279.8" y2="177.5"/>
<line x1="279.8" y1="177.5" x2="277.2" y2="176.0"/>
<line x1="277.2" y1="176.0" x2="277.2" y2="173.0"/>
<line x1="277.2" y1="173.0" x2="279.8" y2="171.5"/>
<line x1="279.8" y1="171.5" x2="282.4" y2="173.0"/>
<line x1="282.4" y1="173.0" x2="282.4" y2="170.0"/>
<line x1="282.4" y1="170.0" x2="285.0" y2="168.5"/>
<line x1="285.0" y1="168.5" x2="282.4" y2="167.0"/>
<line x1="282.4" y1="167.0" x2="282.4" y2="164.0"/>
<line x1="282.4" y1="164.0" x2="279.8" y2="165.5"/>
<line x1="279.8" y1="165.5" x2="277.2" y2="164.0"/>
<line x1="277.2" y1="164.0" x2="277.2" y2="161.0"/>
<line x1="277.2" y1="161.0" x2="279.8" y2="159.5"/>
<line x1="279.8" y1="159.5" x2="277.2" y2="158.0"/>
<line x1="277.2" y1="158.0" x2="277.2" y2="155.0"/>
<line x1="277.2" y1="155.0" x2="279.8" y2="153.5"/>
<line x1="279.8" y1="153.5" x2="282.4" y2="155.0"/>
<line x1="282.4" y1="155.0" x2="282.4" y2="152.0"/>
<line x1="282.4" y1="152.0" x2="285.0" y2="150.5"/>
<line x1="285.0" y1="150.5" x2="287.6" y2="152.0"/>
<line x1="287.6" y1="152.0" x2="287.6" y2="155.0"/>
<line x1="287.6" y1="155.0" x2="290.2" y2="153.5"/>
<line x1="290.2" y1="153.5" x2="292.8" y2="155.0"/>
<line x1="292.8" y1="155.0" x2="292.8" y2="152.0"/>
<line x1="292.8" y1="152.0" x2="295.4" y2="150.5"/>
<line x1="295.4" y1="150.5" x2="292.8" y2="149.0"/>
<line x1="292.8" y1="149.0" x2="292.8" y2="146.0"/>
<line x1="292.8" y1="146.0" x2="295.4" y2="144.5"/>
<line x1="295.4" y1="144.5" x2="298.0" y2="146.0"/>
<line x1="298.0" y1="146.0" x2="298.0" y2="143.0"/>
<line x1="298.0" y1="143.0" x2="300.6" y2="141.5"/>
<line x1="300.6" y1="141.5" x2="298.0" y2="140.0"/>
<line x1="298.0" y1="140.0" x2="298.0" y2="137.0"/>
<line x1="298.0" y1="137.0" x2="295.4" y2="138.5"/>
<line x1="295.4" y1="138.5" x2="292.8" y2="137.0"/>
<line x1="292.8" y1="137.0" x2="292.8" y2="134.0"/>
<line x1="292.8" y1="134.0" x2="295.4" y2="132.5"/>
<line x1="295.4" y1="132.5" x2="292.8" y2="131.0"/>
<line x1="292.8" y1="131.0" x2="292.8" y2="128.0"/>
<line x1="292.8" y1="128.0" x2="290.2" y2="129.5"/>
<line x1="290.2" y1="129.5" x2="287.6" y2="128.0"/>
<line x1="287.6" y1="128.0" x2="287.6" y2="131.0"/>
<line x1="287.6" y1="131.0" x2="285.0" y2="132.5"/>
<line x1="285.0" y1="132.5" x2="282.4" y2="131.0"/>
<line x1="282.4" y1="131.0" x2="282.4" y2="128.0"/>
<line x1="282.4" y1="128.0" x2="279.8" y2="129.5"/>
<line x1="279.8" y1="129.5" x2="277.2" y2="128.0"/>
<line x1="277.2" y1="128.0" x2="277.2" y2="125.0"/>
<line x1="277.2" y1="125.0" x2="279.8" y2="123.5"/>
<line x1="279.8" y1="123.5" x2="277.2" y2="122.0"/>
<line x1="277.2" y1="122.0" x2="277.2" y2="119.0"/>
<line x1="277.2" y1="119.0" x2="279.8" y2="117.5"/>
<line x1="279.8" y1="117.5" x2="282.4" y2="119.0"/>
<line x1="282.4" y1="119.0" x2="282.4" y2="116.0"/>
<line x1="282.4" y1="116.0" x2="285.0" y2="114.5"/>
<line x1="285.0" y1="114.5" x2="282.4" y2="113.0"/>
<line x1="282.4" y1="113.0" x2="282.4" y2="110.0"/>
<line x1="282.4" y1="110.0" x2="279.8" y2="111.5"/>
<line x1="279.8" y1="111.5" x2="277.2" y2="110.0"/>
<line x1="277.2" y1="110.0" x2="277.2" y2="107.0"/>
<line x1="277.2" y1="107.0" x2="279.8" y2="105.5"/>
<line x1="279.8" y1="105.5" x2="277.2" y2="104.0"/>
<line x1="277.2" y1="104.0" x2="277.2" y2="101.0"/>
<line x1="277.2" y1="101.0" x2="274.6" y2="102.5"/>
<line x1="274.6" y1="102.5" x2="272.0" y2="101.0"/>
<line x1="272.0" y1="101.0" x2="272.0" y2="104.0"/>
<line x1="272.0" y1="104.0" x2="269.4" y2="105.5"/>
<line x1="269.4" y1="105.5" x2="266.8" y2="104.0"/>
<line x1="266.8" y1="104.0" x2="266.8" y2="101.0"/>
<line x1="266.8" y1="101.0" x2="264.2" y2="102.5"/>
<line x1="264.2" y1="102.5" x2="261.6" y2="101.0"/>
<line x1="261.6" y1="101.0" x2="261.6" y2="104.0"/>
<line x1="261.6" y1="104.0" x2="259.0" y2="105.5"/>
<line x1="259.0" y1="105.5" x2="261.6" y2="107.0"/>
<line x1="261.6" y1="107.0" x2="261.6" y2="110.0"/>
<line x1="261.6" y1="110.0" x2="259.0" y2="111.5"/>
<line x1="259.0" y1="111.5" x2="256.4" y2="110.0"/>
<line x1="256.4" y1="110.0" x2="256.4" y2="113.0"/>
<line x1="256.4" y1="113.0" x2="253.8" y2="114.5"/>
<line x1="253.8" y1="114.5" x2="251.2" y2="113.0"/>
<line x1="251.2" y1="113.0" x2="251.2" y2="110.0"/>
<line x1="251.2" y1="110.0" x2="248.6" y2="111.5"/>
<line x1="248.6" y1="111.5" x2="246.0" y2="110.0"/>
<line x1="246.0" y1="110.0" x2="246.0" y2="107.0"/>
<line x1="246.0" y1="107.0" x2="248.6" y2="105.5"/>
<line x1="248.6" y1="105.5" x2="246.0" y2="104.0"/>
<line x1="246.0" y1="104.0" x2="246.0" y2="101.0"/>
<line x1="246.0" y1="101.0" x2="243.4" y2="102.5"/>
<line x1="243.4" y1="102.5" x2="240.8" y2="101.0"/>
<line x1="240.8" y1="101.0" x2="240.8" y2="104.0"/>
<line x1="240.8" y1="104.0" x2="238.2" y2="105.5"/>
<line x1="238.2" y1="105.5" x2="235.6" y2="104.0"/>
<line x1="235.6" y1="104.0" x2="235.6" y2="101.0"/>
<line x1="235.6" y1="101.0" x2="233.0" y2="102.5"/>
<line x1="233.0" y1="102.5" x2="230.4" y2="101.0"/>
<line x1="230.4" y1="101.0" x2="230.4" y2="98.0"/>
<line x1="230.4" y1="98.0" x2="233.0" y2="96.5"/>
<line x1="233.0" y1="96.5" x2="230.4" y2="95.0"/>
<line x1="230.4" y1="95.0" x2="230.4" y2="92.0"/>
<line x1="230.4" y1="92.0" x2="233.0" y2="90.5"/>
<line x1="233.0" y1="90.5" x2="235.6" y2="92.0"/>
<line x1="235.6" y1="92.0" x2="235.6" y2="89.0"/>
<line x1="235.6" y1="89.0" x2="238.2" y2="87.5"/>
<line x1="238.2" y1="87.5" x2="235.6" y2="86.0"/>
<line x1="235.6" y1="86.0" x2="235.6" y2="83.0"/>
<line x1="235.6" y1="83.0" x2="233.0" y2="84.5"/>
<line x1="233.0" y1="84.5" x2="230.4" y2="83.0"/>
<line x1="230.4" y1="83.0" x2="230.4" y2="80.0"/>
<line x1="230.4" y1="80.0" x2="233.0" y2="78.5"/>
<line x1="233.0" y1="78.5" x2="230.4" y2="77.0"/>
<line x1="230.4" y1="77.0" x2="230.4" y2="74.0"/>
<line x1="230.4" y1="74.0" x2="233.0" y2="72.5"/>
<line x1="233.0" y1="72.5" x2="235.6" y2="74.0"/>
<line x1="235.6" y1="74.0" x2="235.6" y2="71.0"/>
<line x1="235.6" y1="71.0" x2="238.2" y2="69.5"/>
<line x1="238.2" y1="69.5" x2="240.8" y2="71.0"/>
<line x1="240.8" y1="71.0" x2="240.8" y2="74.0"/>
<line x1="240.8" y1="74.0" x2="243.4" y2="72.5"/>
<line x1="243.4" y1="72.5" x2="246.0" y2="74.0"/>
<line x1="246.0" y1="74.0" x2="246.0" y2="71.0"/>
<line x1="246.0" y1="71.0" x2="248.6" y2="69.5"/>
<line x1="248.6" y1="69.5" x2="246.0" y2="68.0"/>
<line x1="246.0" y1="68.0" x2="246.0" y2="65.0"/>
<line x1="246.0" y1="65.0" x2="248.6" y2="63.5"/>
<line x1="248.6" y1="63.5" x2="251.2" y2="65.0"/>
<line x1="251.2" y1="65.0" x2="251.2" y2="62.0"/>
<line x1="251.2" y1="62.0" x2="253.8" y2="60.5"/>
<line x1="253.8" y1="60.5" x2="251.2" y2="59.0"/>
<line x1="251.2" y1="59.0" x2="251.2" y2="56.0"/>
<line x1="251.2" y1="56.0" x2="248.6" y2="57.5"/>
<line x1="248.6" y1="57.5" x2="246.0" y2="56.0"/>
<line x1="246.0" y1="56.0" x2="246.0" y2="53.0"/>
<line x1="246.0" y1="53.0" x2="248.6" y2="51.5"/>
<line x1="248.6" y1="51.5" x2="246.0" y2="50.0"/>
<line x1="246.0" y1="50.0" x2="246.0" y2="47.0"/>
<line x1="246.0" y1="47.0" x2="243.4" y2="48.5"/>
<line x1="243.4" y1="48.5" x2="240.8" y2="47.0"/>
<line x1="240.8" y1="47.0" x2="240.8" y2="50.0"/>
<line x1="240.8" y1="50.0" x2="238.2" y2="51.5"/>
<line x1="238.2" y1="51.5" x2="235.6" y2="50.0"/>
<line x1="235.6" y1="50.0" x2="235.6" y2="47.0"/>
<line x1="235.6" y1="47.0" x2="233.0" y2="48.5"/>
<line x1="233.0" y1="48.5" x2="230.4" y2="47.0"/>
<line x1="230.4" y1="47.0" x2="230.4" y2="44.0"/>
<line x1="230.4" y1="44.0" x2="233.0" y2="42.5"/>
<line x1="233.0" y1="42.5" x2="230.4" y2="41.0"/>
<line x1="230.4" y1="41.0" x2="230.4" y2="38.0"/>
<line x1="230.4" y1="38.0" x2="233.0" y2="36.5"/>
<line x1="233.0" y1="36.5" x2="235.6" y2="38.0"/>
<line x1="235.6" y1="38.0" x2="235.6" y2="35.0"/>
<line x1="235.6" y1="35.0" x2="238.2" y2="33.5"/>
<line x1="238.2" y1="33.5" x2="235.6" y2="32.0"/>
<line x1="235.6" y1="32.0" x2="235.6" y2="29.0"/>
<line x1="235.6" y1="29.0" x2="233.0" y2="30.5"/>
<line x1="233.0" y1="30.5" x2="230.4" y2="29.0"/>
<line x1="230.4" y1="29.0" x2="230.4" y2="26.0"/>
<line x1="230.4" y1="26.0" x2="233.0" y2="24.5"/>
<line x1="233.0" y1="24.5" x2="230.4" y2="23.0"/>
<line x1="230.4" y1="23.0" x2="230.4" y2="20.0"/>
<line x1="230.4" y1="20.0" x2="227.8" y2="21.5"/>
<line x1="227.8" y1="21.5" x2="225.2" y2="20.0"/>
<line x1="225.2" y1="20.0" x2="225.2" y2="23.0"/>
<line x1="225.2" y1="23.0" x2="222.6" y2="24.5"/>
<line x1="222.6" y1="24.5" x2="220.1" y2="23.0"/>
<line x1="220.1" y1="23.0" x2="220.1" y2="20.0"/>
<line x1="220.1" y1="20.0" x2="217.5" y2="21.5"/>
<line x1="217.5" y1="21.5" x2="214.9" y2="20.0"/>
<line x1="214.9" y1="20.0" x2="214.9" y2="23.0"/>
<line x1="214.9" y1="23.0" x2="212.3" y2="24.5"/>
<line x1="212.3" y1="24.5" x2="214.9" y2="26.0"/>
<line x1="214.9" y1="26.0" x2="214.9" y2="29.0"/>
<line x1="214.9" y1="29.0" x2="212.3" y2="30.5"/>
<line x1="212.3" y1="30.5" x2="209.7" y2="29.0"/>
<line x1="209.7" y1="29.0" x2="209.7" y2="32.0"/>
<line x1="209.7" y1="32.0" x2="207.1" y2="33.5"/>
<line x1="207.1" y1="33.5" x2="204.5" y2="32.0"/>
<line x1="204.5" y1="32.0" x2="204.5" y2="29.0"/>
<line x1="204.5" y1="29.0" x2="201.9" y2="30.5"/>
<line x1="201.9" y1="30.5" x2="199.3" y2="29.0"/>
<line x1="199.3" y1="29.0" x2="199.3" y2="26.0"/>
<line x1="199.3" y1="26.0" x2="201.9" y2="24.5"/>
<line x1="201.9" y1="24.5" x2="199.3" y2="23.0"/>
<line x1="199.3" y1="23.0" x2="199.3" y2="20.0"/>
<line x1="199.3" y1="20.0" x2="196.7" y2="21.5"/>
<line x1="196.7" y1="21.5" x2="194.1" y2="20.0"/>
<line x1="194.1" y1="20.0" x2="194.1" y2="23.0"/>
<line x1="194.1" y1="23.0" x2="191.5" y2="24.5"/>
<line x1="191.5" y1="24.5" x2="188.9" y2="23.0"/>
<line x1="188.9" y1="23.0" x2="188.9" y2="20.0"/>
<line x1="188.9" y1="20.0" x2="186.3" y2="21.5"/>
<line x1="186.3" y1="21.5" x2="183.7" y2="20.0"/>
<line x1="183.7" y1="20.0" x2="183.7" y2="23.0"/>
<line x1="183.7" y1="23.0" x2="181.1" y2="24.5"/>
<line x1="181.1" y1="24.5" x2="183.7" y2="26.0"/>
<line x1="183.7" y1="26.0" x2="183.7" y2="29.0"/>
<line x1="183.7" y1="29.0" x2="181.1" y2="30.5"/>
<line x1="181.1" y1="30.5" x2="178.5" y2="29.0"/>
<line x1="178.5" y1="29.0" x2="178.5" y2="32.0"/>
<line x1="178.5" y1="32.0" x2="175.9" y2="33.5"/>
<line x1="175.9" y1="33.5" x2="178.5" y2="35.0"/>
<line x1="178.5" y1="35.0" x2="178.5" y2="38.0"/>
<line x1="178.5" y1="38.0" x2="181.1" y2="36.5"/>
<line x1="181.1" y1="36.5" x2="183.7" y2="38.0"/>
<line x1="183.7" y1="38.0" x2="183.7" y2="41.0"/>
<line x1="183.7" y1="41.0" x2="181.1" y2="42.5"/>
<line x1="181.1" y1="42.5" x2="183.7" y2="44.0"/>
<line x1="183.7" y1="44.0" x2="183.7" y2="47.0"/>
<line x1="183.7" y1="47.0" x2="181.1" y2="48.5"/>
<line x1="181.1" y1="48.5" x2="178.5" y2="47.0"/>
<line x1="178.5" y1="47.0" x2="178.5" y2="50.0"/>
<line x1="178.5" y1="50.0" x2="175.9" y2="51.5"/>
<line x1="175.9" y1="51.5" x2="173.3" y2="50.0"/>
<line x1="173.3" y1="50.0" x2="173.3" y2="47.0"/>
<line x1="173.3" y1="47.0" x2="170.7" y2="48.5"/>
<line x1="170.7" y1="48.5" x2="168.1" y2="47.0"/>
<line x1="168.1" y1="47.0" x2="168.1" y2="50.0"/>
<line x1="168.1" y1="50.0" x2="165.5" y2="51.5"/>
<line x1="165.5" y1="51.5" x2="168.1" y2="53.0"/>
<line x1="168.1" y1="53.0" x2="168.1" y2="56.0"/>
<line x1="168.1" y1="56.0" x2="165.5" y2="57.5"/>
<line x1="165.5" y1="57.5" x2="162.9" y2="56.0"/>
<line x1="162.9" y1="56.0" x2="162.9" y2="59.0"/>
<line x1="162.9" y1="59.0" x2="160.3" y2="60.5"/>
<line x1="160.3" y1="60.5" x2="157.7" y2="59.0"/>
<line x1="157.7" y1="59.0" x2="157.7" y2="56.0"/>
<line x1="157.7" y1="56.0" x2="155.1" y2="57.5"/>
<line x1="155.1" y1="57.5" x2="152.5" y2="56.0"/>
<line x1="152.5" y1="56.0" x2="152.5" y2="53.0"/>
<line x1="152.5" y1="53.0" x2="155.1" y2="51.5"/>
<line x1="155.1" y1="51.5" x2="152.5" y2="50.0"/>
<line x1="152.5" y1="50.0" x2="152.5" y2="47.0"/>
<line x1="152.5" y1="47.0" x2="149.9" y2="48.5"/>
<line x1="149.9" y1="48.5" x2="147.3" y2="47.0"/>
<line x1="147.3" y1="47.0" x2="147.3" y2="50.0"/>
<line x1="147.3" y1="50.0" x2="144.7" y2="51.5"/>
<line x1="144.7" y1="51.5" x2="142.1" y2="50.0"/>
<line x1="142.1" y1="50.0" x2="142.1" y2="47.0"/>
<line x1="142.1" y1="47.0" x2="139.5" y2="48.5"/>
<line x1="139.5" y1="48.5" x2="136.9" y2="47.0"/>
<line x1="136.9" y1="47.0" x2="136.9" y2="44.0"/>
<line x1="136.9" y1="44.0" x2="139.5" y2="42.5"/>
<line x1="139.5" y1="42.5" x2="136.9" y2="41.0"/>
<line x1="136.9" y1="41.0" x2="136.9" y2="38.0"/>
<line x1="136.9" y1="38.0" x2="139.5" y2="36.5"/>
<line x1="139.5" y1="36.5" x2="142.1" y2="38.0"/>
<line x1="142.1" y1="38.0" x2="142.1" y2="35.0"/>
<line x1="142.1" y1="35.0" x2="144.7" y2="33.5"/>
<line x1="144.7" y1="33.5" x2="142.1" y2="32.0"/>
<line x1="142.1" y1="32.0" x2="142.1" y2="29.0"/>
<line x1="142.1" y1="29.0" x2="139.5" y2="30.5"/>
<line x1="139.5" y1="30.5" x2="136.9" y2="29.0"/>
<line x1="136.9" y1="29.0" x2="136.9" y2="26.0"/>
<line x1="136.9" y1="26.0" x2="139.5" y2="24.5"/>
<line x1="139.5" y1="24.5" x2="136.9" y2="23.0"/>
<line x1="136.9" y1="23.0" x2="136.9" y2="20.0"/>
<line x1="136.9" y1="20.0" x2="134.3" y2="21.5"/>
<line x1="134.3" y1="21.5" x2="131.7" y2="20.0"/>
<line x1="131.7" y1="20.0" x2="131.7" y2="23.0"/>
<line x1="131.7" y1="23.0" x2="129.1" y2="24.5"/>
<line x1="129.1" y1="24.5" x2="126.5" y2="23.0"/>
<line x1="126.5" y1="23.0" x2="126.5" y2="20.0"/>
<line x1="126.5" y1="20.0" x2="123.9" y2="21.5"/>
<line x1="123.9" y1="21.5" x2="121.3" y2="20.0"/>
<line x1="121.3" y1="20.0" x2="121.3" y2="23.0"/>
<line x1="121.3" y1="23.0" x2="118.7" y2="24.5"/>
<line x1="118.7" y1="24.5" x2="121.3" y2="26.0"/>
<line x1="121.3" y1="26.0" x2="121.3" y2="29.0"/>
<line x1="121.3" y1="29.0" x2="118.7" y2="30.5"/>
<line x1="118.7" y1="30.5" x2="116.1" y2="29.0"/>
<line x1="116.1" y1="29.0" x2="116.1" y2="32.0"/>
<line x1="116.1" y1="32.0" x2="113.5" y2="33.5"/>
<line x1="113.5" y1="33.5" x2="110.9" y2="32.0"/>
<line x1="110.9" y1="32.0" x2="110.9" y2="29.0"/>
<line x1="110.9" y1="29.0" x2="108.3" y2="30.5"/>
<line x1="108.3" y1="30.5" x2="105.7" y2="29.0"/>
<line x1="105.7" y1="29.0" x2="105.7" y2="26.0"/>
<line x1="105.7" y1="26.0" x2="108.3" y2="24.5"/>
<line x1="108.3" y1="24.5" x2="105.7" y2="23.0"/>
<line x1="105.7" y1="23.0" x2="105.7" y2="20.0"/>
<line x1="105.7" y1="20.0" x2="103.1" y2="21.5"/>
<line x1="103.1" y1="21.5" x2="100.5" y2="20.0"/>
<line x1="100.5" y1="20.0" x2="100.5" y2="23.0"/>
<line x1="100.5" y1="23.0" x2="97.9" y2="24.5"/>
<line x1="97.9" y1="24.5" x2="95.3" y2="23.0"/>
<line x1="95.3" y1="23.0" x2="95.3" y2="20.0"/>
<line x1="95.3" y1="20.0" x2="92.7" y2="21.5"/>
<line x1="92.7" y1="21.5" x2="90.1" y2="20.0"/>
<line x1="90.1" y1="20.0" x2="90.1" y2="23.0"/>
<line x1="90.1" y1="23.0" x2="87.5" y2="24.5"/>
<line x1="87.5" y1="24.5" x2="90.1" y2="26.0"/>
<line x1="90.1" y1="26.0" x2="90.1" y2="29.0"/>
<line x1="90.1" y1="29.0" x2="87.5" y2="30.5"/>
<line x1="87.5" y1="30.5" x2="85.0" y2="29.0"/>
<line x1="85.0" y1="29.0" x2="85.0" y2="32.0"/>
<line x1="85.0" y1="32.0" x2="82.4" y2="33.5"/>
<line x1="82.4" y1="33.5" x2="85.0" y2="35.0"/>
<line x1="85.0" y1="35.0" x2="85.0" y2="38.0"/>
<line x1="85.0" y1="38.0" x2="87.5" y2="36.5"/>
<line x1="87.5" y1="36.5" x2="90.1" y2="38.0"/>
<line x1="90.1" y1="38.0" x2="90.1" y2="41.0"/>
<line x1="90.1" y1="41.0" x2="87.5" y2="42.5"/>
<line x1="87.5" y1="42.5" x2="90.1" y2="44.0"/>
<line x1="90.1" y1="44.0" x2="90.1" y2="47.0"/>
<line x1="90.1" y1="47.0" x2="87.5" y2="48.5"/>
<line x1="87.5" y1="48.5" x2="85.0" y2="47.0"/>
<line x1="85.0" y1="47.0" x2="85.0" y2="50.0"/>
<line x1="85.0" y1="50.0" x2="82.4" y2="51.5"/>
<line x1="82.4" y1="51.5" x2="79.8" y2="50.0"/>
<line x1="79.8" y1="50.0" x2="79.8" y2="47.0"/>
<line x1="79.8" y1="47.0" x2="77.2" y2="48.5"/>
<line x1="77.2" y1="48.5" x2="74.6" y2="47.0"/>
<line x1="74.6" y1="47.0" x2="74.6" y2="50.0"/>
<line x1="74.6" y1="50.0" x2="72.0" y2="51.5"/>
<line x1="72.0" y1="51.5" x2="74.6" y2="53.0"/>
<line x1="74.6" y1="53.0" x2="74.6" y2="56.0"/>
<line x1="74.6" y1="56.0" x2="72.0" y2="57.5"/>
<line x1="72.0" y1="57.5" x2="69.4" y2="56.0"/>
<line x1="69.4" y1="56.0" x2="69.4" y2="59.0"/>
<line x1="69.4" y1="59.0" x2="66.8" y2="60.5"/>
<line x1="66.8" y1="60.5" x2="69.4" y2="62.0"/>
<line x1="69.4" y1="62.0" x2="69.4" y2="65.0"/>
<line x1="69.4" y1="65.0" x2="72.0" y2="63.5"/>
<line x1="72.0" y1="63.5" x2="74.6" y2="65.0"/>
<line x1="74.6" y1="65.0" x2="74.6" y2="68.0"/>
<line x1="74.6" y1="68.0" x2="72.0" y2="69.5"/>
<line x1="72.0" y1="69.5" x2="74.6" y2="71.0"/>
<line x1="74.6" y1="71.0" x2="74.6" y2="74.0"/>
<line x1="74.6" y1="74.0" x2="77.2" y2="72.5"/>
<line x1="77.2" y1="72.5" x2="79.8" y2="74.0"/>
<line x1="79.8" y1="74.0" x2="79.8" y2="71.0"/>
<line x1="79.8" y1="71.0" x2="82.4" y2="69.5"/>
<line x1="82.4" y1="69.5" x2="85.0" y2="71.0"/>
<line x1="85.0" y1="71.0" x2="85.0" y2="74.0"/>
<line x1="85.0" y1="74.0" x2="87.5" y2="72.5"/>
<line x1="87.5" y1="72.5" x2="90.1" y2="74.0"/>
<line x1="90.1" y1="74.0" x2="90.1" y2="77.0"/>
<line x1="90.1" y1="77.0" x2="87.5" y2="78.5"/>
<line x1="87.5" y1="78.5" x2="90.1" y2="80.0"/>
<line x1="90.1" y1="80.0" x2="90.1" y2="83.0"/>
<line x1="90.1" y1="83.0" x2="87.5" y2="84.5"/>
<line x1="87.5" y1="84.5" x2="85.0" y2="83.0"/>
<line x1="85.0" y1="83.0" x2="85.0" y2="86.0"/>
<line x1="85.0" y1="86.0" x2="82.4" y2="87.5"/>
<line x1="82.4" y1="87.5" x2="85.0" y2="89.0"/>
<line x1="85.0" y1="89.0" x2="85.0" y2="92.0"/>
<line x1="85.0" y1="92.0" x2="87.5" y2="90.5"/>
<line x1="87.5" y1="90.5" x2="90.1" y2="92.0"/>
<line x1="90.1" y1="92.0" x2="90.1" y2="95.0"/>
<line x1="90.1" y1="95.0" x2="87.5" y2="96.5"/>
<line x1="87.5" y1="96.5" x2="90.1" y2="98.0"/>
<line x1="90.1" y1="98.0" x2="90.1" y2="101.0"/>
<line x1="90.1" y1="101.0" x2="87.5" y2="102.5"/>
<line x1="87.5" y1="102.5" x2="85.0" y2="101.0"/>
<line x1="85.0" y1="101.0" x2="85.0" y2="104.0"/>
<line x1="85.0" y1="104.0" x2="82.4" y2="105.5"/>
<line x1="82.4" y1="105.5" x2="79.8" y2="104.0"/>
<line x1="79.8" y1="104.0" x2="79.8" y2="101.0"/>
<line x1="79.8" y1="101.0" x2="77.2" y2="102.5"/>
<line x1="77.2" y1="102.5" x2="74.6" y2="101.0"/>
<line x1="74.6" y1="101.0" x2="74.6" y2="104.0"/>
<line x1="74.6" y1="104.0" x2="72.0" y2="105.5"/>
<line x1="72.0" y1="105.5" x2="74.6" y2="107.0"/>
<line x1="74.6" y1="107.0" x2="74.6" y2="110.0"/>
<line x1="74.6" y1="110.0" x2="72.0" y2="111.5"/>
<line x1="72.0" y1="111.5" x2="69.4" y2="110.0"/>
<line x1="69.4" y1="110.0" x2="69.4" y2="113.0"/>
<line x1="69.4" y1="113.0" x2="66.8" y2="114.5"/>
<line x1="66.8" y1="114.5" x2="64.2" y2="113.0"/>
<line x1="64.2" y1="113.0" x2="64.2" y2="110.0"/>
<line x1="64.2" y1="110.0" x2="61.6" y2="111.5"/>
<line x1="61.6" y1="111.5" x2="59.0" y2="110.0"/>
<line x1="59.0" y1="110.0" x2="59.0" y2="107.0"/>
<line x1="59.0" y1="107.0" x2="61.6" y2="105.5"/>
<line x1="61.6" y1="105.5" x2="59.0" y2="104.0"/>
<line x1="59.0" y1="104.0" x2="59.0" y2="101.0"/>
<line x1="59.0" y1="101.0" x2="56.4" y2="102.5"/>
<line x1="56.4" y1="102.5" x2="53.8" y2="101.0"/>
<line x1="53.8" y1="101.0" x2="53.8" y2="104.0"/>
<line x1="53.8" y1="104.0" x2="51.2" y2="105.5"/>
<line x1="51.2" y1="105.5" x2="48.6" y2="104.0"/>
<line x1="48.6" y1="104.0" x2="48.6" y2="101.0"/>
<line x1="48.6" y1="101.0" x2="46.0" y2="102.5"/>
<line x1="46.0" y1="102.5" x2="43.4" y2="101.0"/>
<line x1="43.4" y1="101.0" x2="43.4" y2="104.0"/>
<line x1="43.4" y1="104.0" x2="40.8" y2="105.5"/>
<line x1="40.8" y1="105.5" x2="43.4" y2="107.0"/>
<line x1="43.4" y1="107.0" x2="43.4" y2="110.0"/>
<line x1="43.4" y1="110.0" x2="40.8" y2="111.5"/>
<line x1="40.8" y1="111.5" x2="38.2" y2="110.0"/>
<line x1="38.2" y1="110.0" x2="38.2" y2="113.0"/>
<line x1="38.2" y1="113.0" x2="35.6" y2="114.5"/>
<line x1="35.6" y1="114.5" x2="38.2" y2="116.0"/>
<line x1="38.2" y1="116.0" x2="38.2" y2="119.0"/>
<line x1="38.2" y1="119.0" x2="40.8" y2="117.5"/>
<line x1="40.8" y1="117.5" x2="43.4" y2="119.0"/>
<line x1="43.4" y1="119.0" x2="43.4" y2="122.0"/>
<line x1="43.4" y1="122.0" x2="40.8" y2="123.5"/>
<line x1="40.8" y1="123.5" x2="43.4" y2="125.0"/>
<line x1="43.4" y1="125.0" x2="43.4" y2="128.0"/>
<line x1="43.4" y1="128.0" x2="40.8" y2="129.5"/>
<line x1="40.8" y1="129.5" x2="38.2" y2="128.0"/>
<line x1="38.2" y1="128.0" x2="38.2" y2="131.0"/>
<line x1="38.2" y1="131.0" x2="35.6" y2="132.5"/>
<line x1="35.6" y1="132.5" x2="33.0" y2="131.0"/>
<line x1="33.0" y1="131.0" x2="33.0" y2="128.0"/>
<line x1="33.0" y1="128.0" x2="30.4" y2="129.5"/>
<line x1="30.4" y1="129.5" x2="27.8" y2="128.0"/>
<line x1="27.8" y1="128.0" x2="27.8" y2="131.0"/>
<line x1="27.8" y1="131.0" x2="25.2" y2="132.5"/>
<line x1="25.2" y1="132.5" x2="27.8" y2="134.0"/>
<line x1="27.8" y1="134.0" x2="27.8" y2="137.0"/>
<line x1="27.8" y1="137.0" x2="25.2" y2="138.5"/>
<line x1="25.2" y1="138.5" x2="22.6" y2="137.0"/>
<line x1="22.6" y1="137.0" x2="22.6" y2="140.0"/>
<line x1="22.6" y1="140.0" x2="20.0" y2="141.5"/>
<line x1="20.0" y1="141.5" x2="22.6" y2="143.0"/>
<line x1="22.6" y1="143.0" x2="22.6" y2="146.0"/>
<line x1="22.6" y1="146.0" x2="25.2" y2="144.5"/>
<line x1="25.2" y1="144.5" x2="27.8" y2="146.0"/>
<line x1="27.8" y1="146.0" x2="27.8" y2="149.0"/>
<line x1="27.8" y1="149.0" x2="25.2" y2="150.5"/>
<line x1="25.2" y1="150.5" x2="27.8" y2="152.0"/>
<line x1="27.8" y1="152.0" x2="27.8" y2="155.0"/>
<line x1="27.8" y1="155.0" x2="30.4" y2="153.5"/>
<line x1="30.4" y1="153.5" x2="33.0" y2="155.0"/>
<line x1="33.0" y1="155.0" x2="33.0" y2="152.0"/>
<line x1="33.0" y1="152.0" x2="35.6" y2="150.5"/>
<line x1="35.6" y1="150.5" x2="38.2" y2="152.0"/>
<line x1="38.2" y1="152.0" x2="38.2" y2="155.0"/>
<line x1="38.2" y1="155.0" x2="40.8" y2="153.5"/>
<line x1="40.8" y1="153.5" x2="43.4" y2="155.0"/>
<line x1="43.4" y1="155.0" x2="43.4" y2="158.0"/>
<line x1="43.4" y1="158.0" x2="40.8" y2="159.5"/>
<line x1="40.8" y1="159.5" x2="43.4" y2="161.0"/>
<line x1="43.4" y1="161.0" x2="43.4" y2="164.0"/>
<line x1="43.4" y1="164.0" x2="40.8" y2="165.5"/>
<line x1="40.8" y1="165.5" x2="38.2" y2="164.0"/>
<line x1="38.2" y1="164.0" x2="38.2" y2="167.0"/>
<line x1="38.2" y1="167.0" x2="35.6" y2="168.5"/>
<line x1="35.6" y1="168.5" x2="38.2" y2="170.0"/>
<line x1="38.2" y1="170.0" x2="38.2" y2="173.0"/>
<line x1="38.2" y1="173.0" x2="40.8" y2="171.5"/>
<line x1="40.8" y1="171.5" x2="43.4" y2="173.0"/>
<line x1="43.4" y1="173.0" x2="43.4" y2="176.0"/>
<line x1="43.4" y1="176.0" x2="40.8" y2="177.5"/>
<line x1="40.8" y1="177.5" x2="43.4" y2="179.0"/>
<line x1="43.4" y1="179.0" x2="43.4" y2="182.0"/>
<line x1="43.4" y1="182.0" x2="46.0" y2="180.5"/>
<line x1="46.0" y1="180.5" x2="48.6" y2="182.0"/>
<line x1="48.6" y1="182.0" x2="48.6" y2="179.0"/>
<line x1="48.6" y1="179.0" x2="51.2" y2="177.5"/>
<line x1="51.2" y1="177.5" x2="53.8" y2="179.0"/>
<line x1="53.8" y1="179.0" x2="53.8" y2="182.0"/>
<line x1="53.8" y1="182.0" x2="56.4" y2="180.5"/>
<line x1="56.4" y1="180.5" x2="59.0" y2="182.0"/>
<line x1="59.0" y1="182.0" x2="59.0" y2="179.0"/>
<line x1="59.0" y1="179.0" x2="61.6" y2="177.5"/>
<line x1="61.6" y1="177.5" x2="59.0" y2="176.0"/>
<line x1="59.0" y1="176.0" x2="59.0" y2="173.0"/>
<line x1="59.0" y1="173.0" x2="61.6" y2="171.5"/>
<line x1="61.6" y1="171.5" x2="64.2" y2="173.0"/>
<line x1="64.2" y1="173.0" x2="64.2" y2="170.0"/>
<line x1="64.2" y1="170.0" x2="66.8" y2="168.5"/>
<line x1="66.8" y1="168.5" x2="69.4" y2="170.0"/>
<line x1="69.4" y1="170.0" x2="69.4" y2="173.0"/>
<line x1="69.4" y1="173.0" x2="72.0" y2="171.5"/>
<line x1="72.0" y1="171.5" x2="74.6" y2="173.0"/>
<line x1="74.6" y1="173.0" x2="74.6" y2="176.0"/>
<line x1="74.6" y1="176.0" x2="72.0" y2="177.5"/>
<line x1="72.0" y1="177.5" x2="74.6" y2="179.0"/>
<line x1="74.6" y1="179.0" x2="74.6" y2="182.0"/>
<line x1="74.6" y1="182.0" x2="77.2" y2="180.5"/>
<line x1="77.2" y1="180.5" x2="79.8" y2="182.0"/>
<line x1="79.8" y1="182.0" x2="79.8" y2="179.0"/>
<line x1="79.8" y1="179.0" x2="82.4" y2="177.5"/>
<line x1="82.4" y1="177.5" x2="85.0" y2="179.0"/>
<line x1="85.0" y1="179.0" x2="85.0" y2="182.0"/>
<line x1="85.0" y1="182.0" x2="87.5" y2="180.5"/>
<line x1="87.5" y1="180.5" x2="90.1" y2="182.0"/>
<line x1="90.1" y1="182.0" x2="90.1" y2="185.0"/>
<line x1="90.1" y1="185.0" x2="87.5" y2="186.5"/>
<line x1="87.5" y1="186.5" x2="90.1" y2="188.0"/>
<line x1="90.1" y1="188.0" x2="90.1" y2="191.0"/>
<line x1="90.1" y1="191.0" x2="87.5" y2="192.5"/>
<line x1="87.5" y1="192.5" x2="85.0" y2="191.0"/>
<line x1="85.0" y1="191.0" x2="85.0" y2="194.0"/>
<line x1="85.0" y1="194.0" x2="82.4" y2="195.5"/>
<line x1="82.4" y1="195.5" x2="85.0" y2="197.0"/>
<line x1="85.0" y1="197.0" x2="85.0" y2="200.0"/>
<line x1="85.0" y1="200.0" x2="87.5" y2="198.5"/>
<line x1="87.5" y1="198.5" x2="90.1" y2="200.0"/>
<line x1="90.1" y1="200.0" x2="90.1" y2="203.0"/>
<line x1="90.1" y1="203.0" x2="87.5" y2="204.5"/>
<line x1="87.5" y1="204.5" x2="90.1" y2="206.0"/>
<line x1="90.1" y1="206.0" x2="90.1" y2="209.0"/>
<line x1="90.1" y1="209.0" x2="87.5" y2="210.5"/>
<line x1="87.5" y1="210.5" x2="85.0" y2="209.0"/>
<line x1="85.0" y1="209.0" x2="85.0" y2="212.0"/>
<line x1="85.0" y1="212.0" x2="82.4" y2="213.5"/>
<line x1="82.4" y1="213.5" x2="79.8" y2="212.0"/>
<line x1="79.8" y1="212.0" x2="79.8" y2="209.0"/>
<line x1="79.8" y1="209.0" x2="77.2" y2="210.5"/>
<line x1="77.2" y1="210.5" x2="74.6" y2="209.0"/>
<line x1="74.6" y1="209.0" x2="74.6" y2="212.0"/>
<line x1="74.6" y1="212.0" x2="72.0" y2="213.5"/>
<line x1="72.0" y1="213.5" x2="74.6" y2="215.0"/>
<line x1="74.6" y1="215.0" x2="74.6" y2="218.0"/>
<line x1="74.6" y1="218.0" x2="72.0" y2="219.5"/>
<line x1="72.0" y1="219.5" x2="69.4" y2="218.0"/>
<line x1="69.4" y1="218.0" x2="69.4" y2="221.0"/>
<line x1="69.4" y1="221.0" x2="66.8" y2="222.5"/>
<line x1="66.8" y1="222.5" x2="69.4" y2="224.0"/>
<line x1="69.4" y1="224.0" x2="69.4" y2="227.0"/>
<line x1="69.4" y1="227.0" x2="72.0" y2="225.5"/>
<line x1="72.0" y1="225.5" x2="74.6" y2="227.0"/>
<line x1="74.6" y1="227.0" x2="74.6" y2="230.0"/>
<line x1="74.6" y1="230.0" x2="72.0" y2="231.5"/>
<line x1="72.0" y1="231.5" x2="74.6" y2="233.0"/>
<line x1="74.6" y1="233.0" x2="74.6" y2="236.0"/>
<line x1="74.6" y1="236.0" x2="77.2" y2="234.5"/>
<line x1="77.2" y1="234.5" x2="79.8" y2="236.0"/>
<line x1="79.8" y1="236.0" x2="79.8" y2="233.0"/>
<line x1="79.8" y1="233.0" x2="82.4" y2="231.5"/>
<line x1="82.4" y1="231.5" x2="85.0" y2="233.0"/>
<line x1="85.0" y1="233.0" x2="85.0" y2="236.0"/>
<line x1="85.0" y1="236.0" x2="87.5" y2="234.5"/>
<line x1="87.5" y1="234.5" x2="90.1" y2="236.0"/>
<line x1="90.1" y1="236.0" x2="90.1" y2="239.0"/>
<line x1="90.1" y1="239.0" x2="87.5" y2="240.5"/>
<line x1="87.5" y1="240.5" x2="90.1" y2="242.0"/>
<line x1="90.1" y1="242.0" x2="90.1" y2="245.0"/>
<line x1="90.1" y1="245.0" x2="87.5" y2="246.5"/>
<line x1="87.5" y1="246.5" x2="85.0" y2="245.0"/>
<line x1="85.0" y1="245.0" x2="85.0" y2="248.0"/>
<line x1="85.0" y1="248.0" x2="82.4" y2="249.5"/>
<line x1="82.4" y1="249.5" x2="85.0" y2="251.0"/>
<line x1="85.0" y1="251.0" x2="85.0" y2="254.0"/>
<line x1="85.0" y1="254.0" x2="87.5" y2="252.5"/>
<line x1="87.5" y1="252.5" x2="90.1" y2="254.0"/>
<line x1="90.1" y1="254.0" x2="90.1" y2="257.0"/>
<line x1="90.1" y1="257.0" x2="87.5" y2="258.5"/>
<line x1="87.5" y1="258.5" x2="90.1" y2="260.0"/>
<line x1="90.1" y1="260.0" x2="90.1" y2="263.0"/>
<line x1="90.1" y1="263.0" x2="92.7" y2="261.5"/>
<line x1="92.7" y1="261.5" x2="95.3" y2="263.0"/>
<line x1="95.3" y1="263.0" x2="95.3" y2="260.0"/>
<line x1="95.3" y1="260.0" x2="97.9" y2="258.5"/>
<line x1="97.9" y1="258.5" x2="100.5" y2="260.0"/>
<line x1="100.5" y1="260.0" x2="100.5" y2="263.0"/>
<line x1="100.5" y1="263.0" x2="103.1" y2="261.5"/>
<line x1="103.1" y1="261.5" x2="105.7" y2="263.0"/>
<line x1="105.7" y1="263.0" x2="105.7" y2="260.0"/>
<line x1="105.7" y1="260.0" x2="108.3" y2="258.5"/>
<line x1="108.3" y1="258.5" x2="105.7" y2="257.0"/>
<line x1="105.7" y1="257.0" x2="105.7" y2="254.0"/>
<line x1="105.7" y1="254.0" x2="108.3" y2="252.5"/>
<line x1="108.3" y1="252.5" x2="110.9" y2="254.0"/>
<line x1="110.9" y1="254.0" x2="110.9" y2="251.0"/>
<line x1="110.9" y1="251.0" x2="113.5" y2="249.5"/>
<line x1="113.5" y1="249.5" x2="116.1" y2="251.0"/>
<line x1="116.1" y1="251.0" x2="116.1" y2="254.0"/>
<line x1="116.1" y1="254.0" x2="118.7" y2="252.5"/>
<line x1="118.7" y1="252.5" x2="121.3" y2="254.0"/>
<line x1="121.3" y1="254.0" x2="121.3" y2="257.0"/>
<line x1="121.3" y1="257.0" x2="118.7" y2="258.5"/>
<line x1="118.7" y1="258.5" x2="121.3" y2="260.0"/>
<line x1="121.3" y1="260.0" x2="121.3" y2="263.0"/>
<line x1="121.3" y1="263.0" x2="123.9" y2="261.5"/>
<line x1="123.9" y1="261.5" x2="126.5" y2="263.0"/>
<line x1="126.5" y1="263.0" x2="126.5" y2="260.0"/>
<line x1="126.5" y1="260.0" x2="129.1" y2="258.5"/>
<line x1="129.1" y1="258.5" x2="131.7" y2="260.0"/>
<line x1="131.7" y1="260.0" x2="131.7" y2="263.0"/>
<line x1="131.7" y1="263.0" x2="134.3" y2="261.5"/>
<line x1="134.3" y1="261.5" x2="136.9" y2="263.0"/>
<line x1="136.9" y1="263.0" x2="136.9" y2="260.0"/>
<line x1="136.9" y1="260.0" x2="139.5" y2="258.5"/>
<line x1="139.5" y1="258.5" x2="136.9" y2="257.0"/>
<line x1="136.9" y1="257.0" x2="136.9" y2="254.0"/>
<line x1="136.9" y1="254.0" x2="139.5" y2="252.5"/>
<line x1="139.5" y1="252.5" x2="142.1" y2="254.0"/>
<line x1="142.1" y1="254.0" x2="142.1" y2="251.0"/>
<line x1="142.1" y1="251.0" x2="144.7" y2="249.5"/>
<line x1="144.7" y1="249.5" x2="142.1" y2="248.0"/>
<line x1="142.1" y1="248.0" x2="142.1" y2="245.0"/>
<line x1="142.1" y1="245.0" x2="139.5" y2="246.5"/>
<line x1="139.5" y1="246.5" x2="136.9" y2="245.0"/>
<line x1="136.9" y1="245.0" x2="136.9" y2="242.0"/>
<line x1="136.9" y1="242.0" x2="139.5" y2="240.5"/>
<line x1="139.5" y1="240.5" x2="136.9" y2="239.0"/>
<line x1="136.9" y1="239.0" x2="136.9" y2="236.0"/>
<line x1="136.9" y1="236.0" x2="139.5" y2="234.5"/>
<line x1="139.5" y1="234.5" x2="142.1" y2="236.0"/>
<line x1="142.1" y1="236.0" x2="142.1" y2="233.0"/>
<line x1="142.1" y1="233.0" x2="144.7" y2="231.5"/>
<line x1="144.7" y1="231.5" x2="147.3" y2="233.0"/>
<line x1="147.3" y1="233.0" x2="147.3" y2="236.0"/>
<line x1="147.3" y1="236.0" x2="149.9" y2="234.5"/>
<line x1="149.9" y1="234.5" x2="152.5" y2="236.0"/>
<line x1="152.5" y1="236.0" x2="152.5" y2="233.0"/>
<line x1="152.5" y1="233.0" x2="155.1" y2="231.5"/>
<line x1="155.1" y1="231.5" x2="152.5" y2="230.0"/>
<line x1="152.5" y1="230.0" x2="152.5" y2="227.0"/>
<line x1="152.5" y1="227.0" x2="155.1" y2="225.5"/>
<line x1="155.1" y1="225.5" x2="157.7" y2="227.0"/>
<line x1="157.7" y1="227.0" x2="157.7" y2="224.0"/>
<line x1="157.7" y1="224.0" x2="160.3" y2="222.5"/>
<line x1="160.3" y1="222.5" x2="162.9" y2="224.0"/>
<line x1="162.9" y1="224.0" x2="162.9" y2="227.0"/>
<line x1="162.9" y1="227.0" x2="165.5" y2="225.5"/>
<line x1="165.5" y1="225.5" x2="168.1" y2="227.0"/>
<line x1="168.1" y1="227.0" x2="168.1" y2="230.0"/>
<line x1="168.1" y1="230.0" x2="165.5" y2="231.5"/>
<line x1="165.5" y1="231.5" x2="168.1" y2="233.0"/>
<line x1="168.1" y1="233.0" x2="168.1" y2="236.0"/>
<line x1="168.1" y1="236.0" x2="170.7" y2="234.5"/>
<line x1="170.7" y1="234.5" x2="173.3" y2="236.0"/>
<line x1="173.3" y1="236.0" x2="173.3" y2="233.0"/>
<line x1="173.3" y1="233.0" x2="175.9" y2="231.5"/>
<line x1="175.9" y1="231.5" x2="178.5" y2="233.0"/>
<line x1="178.5" y1="233.0" x2="178.5" y2="236.0"/>
<line x1="178.5" y1="236.0" x2="181.1" y2="234.5"/>
<line x1="181.1" y1="234.5" x2="183.7" y2="236.0"/>
<line x1="183.7" y1="236.0" x2="183.7" y2="239.0"/>
<line x1="183.7" y1="239.0" x2="181.1" y2="240.5"/>
<line x1="181.1" y1="240.5" x2="183.7" y2="242.0"/>
<line x1="183.7" y1="242.0" x2="183.7" y2="245.0"/>
<line x1="183.7" y1="245.0" x2="181.1" y2="246.5"/>
<line x1="181.1" y1="246.5" x2="178.5" y2="245.0"/>
<line x1="178.5" y1="245.0" x2="178.5" y2="248.0"/>
<line x1="178.5" y1="248.0" x2="175.9" y2="249.5"/>
<line x1="175.9" y1="249.5" x2="178.5" y2="251.0"/>
<line x1="178.5" y1="251.0" x2="178.5" y2="254.0"/>
<line x1="178.5" y1="254.0" x2="181.1" y2="252.5"/>
<line x1="181.1" y1="252.5" x2="183.7" y2="254.0"/>
<line x1="183.7" y1="254.0" x2="183.7" y2="257.0"/>
<line x1="183.7" y1="257.0" x2="181.1" y2="258.5"/>
<line x1="181.1" y1="258.5" x2="183.7" y2="260.0"/>
<line x1="183.7" y1="260.0" x2="183.7" y2="263.0"/>
<line x1="183.7" y1="263.0" x2="186.3" y2="261.5"/>
<line x1="186.3" y1="261.5" x2="188.9" y2="263.0"/>
<line x1="188.9" y1="263.0" x2="188.9" y2="260.0"/>
<line x1="188.9" y1="260.0" x2="191.5" y2="258.5"/>
<line x1="191.5" y1="258.5" x2="194.1" y2="260.0"/>
<line x1="194.1" y1="260.0" x2="194.1" y2="263.0"/>
<line x1="194.1" y1="263.0" x2="196.7" y2="261.5"/>
<line x1="196.7" y1="261.5" x2="199.3" y2="263.0"/>
<line x1="199.3" y1="263.0" x2="199.3" y2="260.0"/>
<line x1="199.3" y1="260.0" x2="201.9" y2="258.5"/>
<line x1="201.9" y1="258.5" x2="199.3" y2="257.0"/>
<line x1="199.3" y1="257.0" x2="199.3" y2="254.0"/>
<line x1="199.3" y1="254.0" x2="201.9" y2="252.5"/>
<line x1="201.9" y1="252.5" x2="204.5" y2="254.0"/>
<line x1="204.5" y1="254.0" x2="204.5" y2="251.0"/>
<line x1="204.5" y1="251.0" x2="207.1" y2="249.5"/>
<line x1="207.1" y1="249.5" x2="209.7" y2="251.0"/>
<line x1="209.7" y1="251.0" x2="209.7" y2="254.0"/>
<line x1="209.7" y1="254.0" x2="212.3" y2="252.5"/>
<line x1="212.3" y1="252.5" x2="214.9" y2="254.0"/>
<line x1="214.9" y1="254.0" x2="214.9" y2="257.0"/>
<line x1="214.9" y1="257.0" x2="212.3" y2="258.5"/>
<line x1="212.3" y1="258.5" x2="214.9" y2="260.0"/>
<line x1="214.9" y1="260.0" x2="214.9" y2="263.0"/>
<line x1="214.9" y1="263.0" x2="217.5" y2="261.5"/>
<line x1="217.5" y1="261.5" x2="220.1" y2="263.0"/>
<line x1="220.1" y1="263.0" x2="220.1" y2="260.0"/>
<line x1="220.1" y1="260.0" x2="222.6" y2="258.5"/>
<line x1="222.6" y1="258.5" x2="225.2" y2="260.0"/>
<line x1="225.2" y1="260.0" x2="225.2" y2="263.0"/>
<line x1="225.2" y1="263.0" x2="227.8" y2="261.5"/>
<line x1="227.8" y1="261.5" x2="230.4" y2="263.0"/>
</g>
</svg>